<mxfile host="app.diagrams.net" modified="2021-01-25T08:33:24.893Z" agent="5.0 (Macintosh; Intel Mac OS X 10_15_6) AppleWebKit/537.36 (KHTML, like Gecko) Chrome/88.0.4324.96 Safari/537.36" etag="O4qx2l3xxZ_Vyyt0uU2k" version="14.2.7" type="github" pages="4">
  <diagram id="IwGoDYMSzOG72_LcMlLt" name="[0] lab topo">
    <mxGraphModel dx="2052" dy="1149" grid="1" gridSize="1" guides="1" tooltips="1" connect="1" arrows="1" fold="1" page="1" pageScale="1" pageWidth="827" pageHeight="1169" background="#4D5766" math="0" shadow="0">
      <root>
        <mxCell id="0" />
        <mxCell id="1" parent="0" />
        <mxCell id="HUSUJuAqTIokaHn7cn6M-1" value="" style="rounded=0;whiteSpace=wrap;html=1;fontSize=12;align=center;fontFamily=Manrope;fontSource=https%3A%2F%2Ffonts.googleapis.com%2Fcss%3Ffamily%3DManrope;fontColor=#FFFFFF;dashed=1;strokeColor=none;fillColor=#DDE9F5;" parent="1" vertex="1">
          <mxGeometry x="40" y="205" width="430" height="285" as="geometry" />
        </mxCell>
        <mxCell id="HUSUJuAqTIokaHn7cn6M-2" value="&lt;span style=&quot;font-size: 14px&quot;&gt;Lab host&lt;/span&gt;" style="rounded=0;whiteSpace=wrap;html=1;fontSize=12;align=center;fontFamily=Manrope;fontSource=https%3A%2F%2Ffonts.googleapis.com%2Fcss%3Ffamily%3DManrope;dashed=1;strokeColor=none;fillColor=#98A2AE;fontColor=#FFFFFF;" parent="1" vertex="1">
          <mxGeometry x="40" y="185" width="430" height="20" as="geometry" />
        </mxCell>
        <mxCell id="HUSUJuAqTIokaHn7cn6M-3" value="" style="rounded=0;whiteSpace=wrap;html=1;fontSize=12;align=center;strokeColor=none;fontFamily=Manrope;fontSource=https%3A%2F%2Ffonts.googleapis.com%2Fcss%3Ffamily%3DManrope;fontColor=#DDE9F5;fillColor=#BEC8D2;" parent="1" vertex="1">
          <mxGeometry x="76.5" y="365" width="163.5" height="107.5" as="geometry" />
        </mxCell>
        <mxCell id="HUSUJuAqTIokaHn7cn6M-4" value="SR Linux" style="rounded=0;whiteSpace=wrap;html=1;fontSize=12;align=center;strokeColor=none;fontFamily=Manrope;fontSource=https%3A%2F%2Ffonts.googleapis.com%2Fcss%3Ffamily%3DManrope;fontColor=#FFFFFF;fillColor=#124191;" parent="1" vertex="1">
          <mxGeometry x="80" y="400" width="120" height="37.5" as="geometry" />
        </mxCell>
        <mxCell id="HUSUJuAqTIokaHn7cn6M-5" value="mgmt" style="rounded=0;whiteSpace=wrap;html=1;fontFamily=Manrope;fontSize=12;fontColor=#FFFFFF;align=center;fillColor=#4BDD33;strokeColor=none;" parent="1" vertex="1">
          <mxGeometry x="118.25" y="385" width="43.5" height="15" as="geometry" />
        </mxCell>
        <mxCell id="HUSUJuAqTIokaHn7cn6M-6" value="" style="rounded=0;whiteSpace=wrap;html=1;fontSize=12;align=center;strokeColor=none;fontFamily=Manrope;fontSource=https%3A%2F%2Ffonts.googleapis.com%2Fcss%3Ffamily%3DManrope;fontColor=#FFFFFF;fillColor=#BEC8D2;" parent="1" vertex="1">
          <mxGeometry x="76.5" y="216" width="383.5" height="126" as="geometry" />
        </mxCell>
        <mxCell id="HUSUJuAqTIokaHn7cn6M-7" value="&lt;font face=&quot;Fira Code&quot; data-font-src=&quot;https://fonts.googleapis.com/css?family=Fira+Code&quot; style=&quot;font-size: 10px&quot;&gt;&lt;br&gt;&lt;/font&gt;" style="rounded=0;whiteSpace=wrap;html=1;fontSize=12;align=left;strokeColor=none;fontFamily=Manrope;fontSource=https%3A%2F%2Ffonts.googleapis.com%2Fcss%3Ffamily%3DManrope;fontColor=#FFFFFF;spacingLeft=4;fillColor=#124191;verticalAlign=middle;connectable=0;" parent="1" vertex="1">
          <mxGeometry x="85" y="240" width="365" height="95" as="geometry" />
        </mxCell>
        <mxCell id="HUSUJuAqTIokaHn7cn6M-8" value="veth&lt;font color=&quot;#bec8d2&quot;&gt;XXX&lt;/font&gt;" style="rounded=0;whiteSpace=wrap;html=1;fontFamily=Manrope;fontSize=12;fontColor=#FFFFFF;align=center;fillColor=#4BDD33;strokeColor=none;" parent="1" vertex="1">
          <mxGeometry x="113.63" y="307.5" width="52.75" height="17.5" as="geometry" />
        </mxCell>
        <mxCell id="HUSUJuAqTIokaHn7cn6M-9" style="edgeStyle=orthogonalEdgeStyle;rounded=0;orthogonalLoop=1;jettySize=auto;html=1;exitX=0.5;exitY=0;exitDx=0;exitDy=0;entryX=0.5;entryY=1;entryDx=0;entryDy=0;fontFamily=Manrope;fontSize=12;fontColor=#FFFFFF;endArrow=oval;endFill=1;startArrow=oval;startFill=1;strokeColor=#4BDD33;" parent="1" source="HUSUJuAqTIokaHn7cn6M-5" target="HUSUJuAqTIokaHn7cn6M-8" edge="1">
          <mxGeometry relative="1" as="geometry" />
        </mxCell>
        <mxCell id="HUSUJuAqTIokaHn7cn6M-10" value="&lt;font color=&quot;#dde9f5&quot;&gt;netns:&lt;/font&gt;&amp;nbsp;default" style="rounded=0;whiteSpace=wrap;html=1;fontSize=12;align=center;fontFamily=Manrope;fontSource=https%3A%2F%2Ffonts.googleapis.com%2Fcss%3Ffamily%3DManrope;fontColor=#FFFFFF;fillColor=#98A2AE;rotation=0;strokeColor=none;horizontal=0;verticalAlign=middle;" parent="1" vertex="1">
          <mxGeometry x="50" y="216" width="26.5" height="126" as="geometry" />
        </mxCell>
        <mxCell id="HUSUJuAqTIokaHn7cn6M-11" value="&lt;font color=&quot;#dde9f5&quot;&gt;netns:&lt;/font&gt;&amp;nbsp;container1" style="rounded=0;whiteSpace=wrap;html=1;fontSize=12;align=center;fontFamily=Manrope;fontSource=https%3A%2F%2Ffonts.googleapis.com%2Fcss%3Ffamily%3DManrope;fontColor=#FFFFFF;fillColor=#98A2AE;rotation=0;strokeColor=none;horizontal=0;verticalAlign=middle;" parent="1" vertex="1">
          <mxGeometry x="50" y="365" width="26.5" height="107.5" as="geometry" />
        </mxCell>
        <mxCell id="HUSUJuAqTIokaHn7cn6M-12" value="&lt;font color=&quot;#bec8d2&quot;&gt;docker network:&lt;/font&gt; clab&lt;font face=&quot;Fira Code&quot; data-font-src=&quot;https://fonts.googleapis.com/css?family=Fira+Code&quot; style=&quot;font-size: 10px&quot;&gt;&lt;br&gt;&lt;/font&gt;" style="rounded=0;whiteSpace=wrap;html=1;fontSize=12;align=left;strokeColor=none;fontFamily=Manrope;fontSource=https%3A%2F%2Ffonts.googleapis.com%2Fcss%3Ffamily%3DManrope;fontColor=#FFFFFF;spacingLeft=4;fillColor=#001135;" parent="1" vertex="1">
          <mxGeometry x="85" y="220" width="365" height="20" as="geometry" />
        </mxCell>
        <mxCell id="HUSUJuAqTIokaHn7cn6M-13" value="&lt;font&gt;Lab wiring diagram&lt;/font&gt;" style="text;html=1;align=center;verticalAlign=middle;resizable=0;points=[];autosize=1;fontSize=14;fontFamily=Manrope;fontStyle=0;fontColor=#FFFFFF;" parent="1" vertex="1">
          <mxGeometry x="185" y="490" width="135" height="25" as="geometry" />
        </mxCell>
        <mxCell id="HUSUJuAqTIokaHn7cn6M-14" value="br-&lt;font color=&quot;#98a2ae&quot;&gt;XXX&lt;/font&gt;" style="rounded=0;whiteSpace=wrap;html=1;fontSize=12;align=left;fontFamily=Manrope;fontSource=https%3A%2F%2Ffonts.googleapis.com%2Fcss%3Ffamily%3DManrope;dashed=1;strokeColor=none;fillColor=#DDE9F5;fontColor=#001135;spacingLeft=4;" parent="1" vertex="1">
          <mxGeometry x="102.25" y="290" width="307.75" height="17.5" as="geometry" />
        </mxCell>
        <mxCell id="HUSUJuAqTIokaHn7cn6M-15" value="&lt;font face=&quot;Fira Code&quot; data-font-src=&quot;https://fonts.googleapis.com/css?family=Fira+Code&quot;&gt;Pool&lt;br&gt;&lt;/font&gt;" style="rounded=0;whiteSpace=wrap;html=1;fontSize=12;align=center;strokeColor=none;fontFamily=Manrope;fontSource=https%3A%2F%2Ffonts.googleapis.com%2Fcss%3Ffamily%3DManrope;fontColor=#FFFFFF;spacingLeft=0;verticalAlign=middle;fillColor=#00C9FF;" parent="1" vertex="1">
          <mxGeometry x="102" y="245" width="34.25" height="35" as="geometry" />
        </mxCell>
        <mxCell id="HUSUJuAqTIokaHn7cn6M-16" value="&lt;font color=&quot;#98a2ae&quot; style=&quot;font-size: 12px ; line-height: 100%&quot;&gt;IPv4:&lt;/font&gt;&lt;span style=&quot;color: rgb(255 , 255 , 255)&quot;&gt;&amp;nbsp;&lt;/span&gt;&lt;font face=&quot;Fira Code&quot; data-font-src=&quot;https://fonts.googleapis.com/css?family=Fira+Code&quot; style=&quot;font-size: 10px&quot;&gt;172.20.20.0/24&lt;br&gt;&lt;span style=&quot;color: rgb(255 , 255 , 255) ; font-family: &amp;#34;manrope&amp;#34; ; font-size: 12px&quot;&gt;&lt;font color=&quot;#98a2ae&quot;&gt;IPv6:&lt;/font&gt;&amp;nbsp;&lt;/span&gt;&lt;font face=&quot;Fira Code&quot; data-font-src=&quot;https://fonts.googleapis.com/css?family=Fira+Code&quot;&gt;2001:172:20:20::/80&lt;/font&gt;&lt;/font&gt;" style="rounded=0;whiteSpace=wrap;html=1;fontSize=12;align=left;fontFamily=Manrope;fontSource=https%3A%2F%2Ffonts.googleapis.com%2Fcss%3Ffamily%3DManrope;dashed=1;strokeColor=none;fillColor=#DDE9F5;fontColor=#001135;" parent="1" vertex="1">
          <mxGeometry x="136.25" y="245" width="150" height="35" as="geometry" />
        </mxCell>
        <mxCell id="HUSUJuAqTIokaHn7cn6M-17" style="rounded=0;orthogonalLoop=1;jettySize=auto;html=1;fontFamily=Manrope;fontSize=12;fontColor=#FFFFFF;endArrow=oval;endFill=1;startArrow=oval;startFill=1;strokeColor=#4BDD33;" parent="1" edge="1">
          <mxGeometry relative="1" as="geometry">
            <mxPoint x="332.75" y="260" as="sourcePoint" />
            <mxPoint x="300" y="290" as="targetPoint" />
            <Array as="points">
              <mxPoint x="312.75" y="260" />
            </Array>
          </mxGeometry>
        </mxCell>
        <mxCell id="HUSUJuAqTIokaHn7cn6M-18" value="&lt;font face=&quot;Fira Code&quot; data-font-src=&quot;https://fonts.googleapis.com/css?family=Fira+Code&quot; style=&quot;font-size: 10px&quot;&gt;172.20.20.1&lt;/font&gt;" style="text;html=1;align=left;verticalAlign=middle;resizable=0;points=[];autosize=1;fontSize=14;fontFamily=Manrope;fontColor=#FFFFFF;" parent="1" vertex="1">
          <mxGeometry x="338.75" y="245" width="80" height="25" as="geometry" />
        </mxCell>
        <mxCell id="HUSUJuAqTIokaHn7cn6M-19" style="rounded=0;orthogonalLoop=1;jettySize=auto;html=1;fontFamily=Manrope;fontSize=12;fontColor=#FFFFFF;endArrow=oval;endFill=1;startArrow=oval;startFill=1;strokeColor=#4BDD33;" parent="1" edge="1">
          <mxGeometry relative="1" as="geometry">
            <mxPoint x="332.75" y="275" as="sourcePoint" />
            <mxPoint x="300" y="290" as="targetPoint" />
            <Array as="points">
              <mxPoint x="312.75" y="275" />
            </Array>
          </mxGeometry>
        </mxCell>
        <mxCell id="HUSUJuAqTIokaHn7cn6M-20" value="&lt;font face=&quot;Fira Code&quot; data-font-src=&quot;https://fonts.googleapis.com/css?family=Fira+Code&quot; style=&quot;font-size: 10px&quot;&gt;2001:172:20:20::1&lt;/font&gt;" style="text;html=1;align=left;verticalAlign=middle;resizable=0;points=[];autosize=1;fontSize=14;fontFamily=Manrope;fontColor=#FFFFFF;" parent="1" vertex="1">
          <mxGeometry x="338.75" y="260" width="115" height="25" as="geometry" />
        </mxCell>
        <mxCell id="HUSUJuAqTIokaHn7cn6M-21" value="" style="group" parent="1" vertex="1" connectable="0">
          <mxGeometry x="595" y="333" width="50" height="50" as="geometry" />
        </mxCell>
        <mxCell id="HUSUJuAqTIokaHn7cn6M-22" value="" style="group" parent="HUSUJuAqTIokaHn7cn6M-21" vertex="1" connectable="0">
          <mxGeometry width="50" height="50" as="geometry" />
        </mxCell>
        <mxCell id="HUSUJuAqTIokaHn7cn6M-23" value="" style="whiteSpace=wrap;html=1;aspect=fixed;fillColor=#001135;strokeColor=none;connectable=1;allowArrows=1;fontFamily=Manrope;fontSource=https%3A%2F%2Ffonts.googleapis.com%2Fcss%3Ffamily%3DManrope;" parent="HUSUJuAqTIokaHn7cn6M-22" vertex="1">
          <mxGeometry width="50" height="50" as="geometry" />
        </mxCell>
        <mxCell id="HUSUJuAqTIokaHn7cn6M-24" value="" style="endArrow=open;html=1;edgeStyle=orthogonalEdgeStyle;rounded=0;endFill=0;startSize=6;endSize=2;strokeColor=#FFFFFF;fontFamily=Manrope;fontSource=https%3A%2F%2Ffonts.googleapis.com%2Fcss%3Ffamily%3DManrope;" parent="HUSUJuAqTIokaHn7cn6M-22" edge="1">
          <mxGeometry width="83.33333333333334" height="83.33333333333334" as="geometry">
            <mxPoint x="5" y="20" as="sourcePoint" />
            <mxPoint x="18.333333333333336" y="5" as="targetPoint" />
            <Array as="points">
              <mxPoint x="18.333333333333336" y="20" />
            </Array>
          </mxGeometry>
        </mxCell>
        <mxCell id="HUSUJuAqTIokaHn7cn6M-25" value="" style="endArrow=open;html=1;edgeStyle=orthogonalEdgeStyle;rounded=0;endFill=0;startSize=6;endSize=2;strokeColor=#FFFFFF;fontFamily=Manrope;fontSource=https%3A%2F%2Ffonts.googleapis.com%2Fcss%3Ffamily%3DManrope;" parent="HUSUJuAqTIokaHn7cn6M-22" edge="1">
          <mxGeometry width="83.33333333333334" height="83.33333333333334" as="geometry">
            <mxPoint x="18.333333333333336" y="45" as="sourcePoint" />
            <mxPoint x="5" y="31.666666666666668" as="targetPoint" />
            <Array as="points">
              <mxPoint x="18.333333333333336" y="31.666666666666668" />
            </Array>
          </mxGeometry>
        </mxCell>
        <mxCell id="HUSUJuAqTIokaHn7cn6M-26" value="" style="endArrow=open;html=1;edgeStyle=orthogonalEdgeStyle;rounded=0;endFill=0;startSize=6;endSize=2;strokeColor=#FFFFFF;fontFamily=Manrope;fontSource=https%3A%2F%2Ffonts.googleapis.com%2Fcss%3Ffamily%3DManrope;" parent="HUSUJuAqTIokaHn7cn6M-22" edge="1">
          <mxGeometry width="83.33333333333334" height="83.33333333333334" as="geometry">
            <mxPoint x="30" y="5" as="sourcePoint" />
            <mxPoint x="45" y="20" as="targetPoint" />
            <Array as="points">
              <mxPoint x="30" y="20" />
            </Array>
          </mxGeometry>
        </mxCell>
        <mxCell id="HUSUJuAqTIokaHn7cn6M-27" value="" style="endArrow=open;html=1;edgeStyle=orthogonalEdgeStyle;rounded=0;endFill=0;startSize=6;endSize=2;strokeColor=#FFFFFF;fontFamily=Manrope;fontSource=https%3A%2F%2Ffonts.googleapis.com%2Fcss%3Ffamily%3DManrope;" parent="HUSUJuAqTIokaHn7cn6M-22" edge="1">
          <mxGeometry width="83.33333333333334" height="83.33333333333334" as="geometry">
            <mxPoint x="45" y="31.666666666666668" as="sourcePoint" />
            <mxPoint x="30" y="45" as="targetPoint" />
            <Array as="points">
              <mxPoint x="30" y="31.666666666666668" />
            </Array>
          </mxGeometry>
        </mxCell>
        <mxCell id="HUSUJuAqTIokaHn7cn6M-28" value="&lt;font&gt;srl&lt;/font&gt;" style="text;html=1;align=center;verticalAlign=middle;resizable=0;points=[];autosize=1;fontSize=14;fontFamily=Manrope;fontStyle=0;fontColor=#FFFFFF;" parent="1" vertex="1">
          <mxGeometry x="605" y="383" width="30" height="25" as="geometry" />
        </mxCell>
        <mxCell id="HUSUJuAqTIokaHn7cn6M-29" value="" style="endArrow=none;html=1;shadow=0;strokeWidth=4;fillColor=#666666;fontFamily=nasa;fontSize=18;fontColor=#FFFFFF;strokeColor=#4BDD33;" parent="1" edge="1">
          <mxGeometry width="50" height="50" relative="1" as="geometry">
            <mxPoint x="599" y="293" as="sourcePoint" />
            <mxPoint x="798" y="293" as="targetPoint" />
          </mxGeometry>
        </mxCell>
        <mxCell id="HUSUJuAqTIokaHn7cn6M-30" style="edgeStyle=orthogonalEdgeStyle;rounded=0;orthogonalLoop=1;jettySize=auto;html=1;fontFamily=Manrope;fontSize=12;fontColor=#FFFFFF;endArrow=oval;endFill=1;startArrow=oval;startFill=1;strokeColor=#4BDD33;" parent="1" target="HUSUJuAqTIokaHn7cn6M-23" edge="1">
          <mxGeometry relative="1" as="geometry">
            <mxPoint x="620" y="293" as="sourcePoint" />
            <mxPoint x="619.9949999999999" y="321" as="targetPoint" />
          </mxGeometry>
        </mxCell>
        <mxCell id="HUSUJuAqTIokaHn7cn6M-31" value="&lt;font&gt;Lab logical diagram&lt;/font&gt;" style="text;html=1;align=center;verticalAlign=middle;resizable=0;points=[];autosize=1;fontSize=14;fontFamily=Manrope;fontStyle=0;fontColor=#FFFFFF;" parent="1" vertex="1">
          <mxGeometry x="605" y="491.5" width="134" height="22" as="geometry" />
        </mxCell>
        <mxCell id="HUSUJuAqTIokaHn7cn6M-32" style="rounded=0;orthogonalLoop=1;jettySize=auto;html=1;entryX=0.5;entryY=1;entryDx=0;entryDy=0;startSize=6;endArrow=none;endFill=0;endSize=2;fontFamily=Manrope;fontSize=8;dashed=1;fontSource=https%3A%2F%2Ffonts.googleapis.com%2Fcss%3Ffamily%3DManrope;strokeColor=#FFFFFF;" parent="1" edge="1">
          <mxGeometry relative="1" as="geometry">
            <mxPoint x="490" y="503" as="sourcePoint" />
            <mxPoint x="490" y="165" as="targetPoint" />
          </mxGeometry>
        </mxCell>
        <mxCell id="HUSUJuAqTIokaHn7cn6M-33" value="" style="rounded=0;whiteSpace=wrap;html=1;fontSize=12;align=center;strokeColor=none;fontFamily=Manrope;fontSource=https%3A%2F%2Ffonts.googleapis.com%2Fcss%3Ffamily%3DManrope;fontColor=#DDE9F5;fillColor=#BEC8D2;" parent="1" vertex="1">
          <mxGeometry x="270" y="365" width="163.5" height="107.5" as="geometry" />
        </mxCell>
        <mxCell id="HUSUJuAqTIokaHn7cn6M-34" value="SONiC" style="rounded=0;whiteSpace=wrap;html=1;fontSize=12;align=center;strokeColor=none;fontFamily=Manrope;fontSource=https%3A%2F%2Ffonts.googleapis.com%2Fcss%3Ffamily%3DManrope;fontColor=#FFFFFF;fillColor=#124191;" parent="1" vertex="1">
          <mxGeometry x="308.5" y="400" width="120" height="37.5" as="geometry" />
        </mxCell>
        <mxCell id="HUSUJuAqTIokaHn7cn6M-35" value="eth0" style="rounded=0;whiteSpace=wrap;html=1;fontFamily=Manrope;fontSize=12;fontColor=#FFFFFF;align=center;fillColor=#4BDD33;strokeColor=none;" parent="1" vertex="1">
          <mxGeometry x="346.75" y="385" width="43.5" height="15" as="geometry" />
        </mxCell>
        <mxCell id="HUSUJuAqTIokaHn7cn6M-36" value="veth&lt;font color=&quot;#bec8d2&quot;&gt;XXX&lt;/font&gt;" style="rounded=0;whiteSpace=wrap;html=1;fontFamily=Manrope;fontSize=12;fontColor=#FFFFFF;align=center;fillColor=#4BDD33;strokeColor=none;" parent="1" vertex="1">
          <mxGeometry x="342.13" y="307.5" width="52.75" height="17.5" as="geometry" />
        </mxCell>
        <mxCell id="HUSUJuAqTIokaHn7cn6M-37" style="edgeStyle=orthogonalEdgeStyle;rounded=0;orthogonalLoop=1;jettySize=auto;html=1;exitX=0.5;exitY=0;exitDx=0;exitDy=0;entryX=0.5;entryY=1;entryDx=0;entryDy=0;fontFamily=Manrope;fontSize=12;fontColor=#FFFFFF;endArrow=oval;endFill=1;startArrow=oval;startFill=1;strokeColor=#4BDD33;" parent="1" source="HUSUJuAqTIokaHn7cn6M-35" target="HUSUJuAqTIokaHn7cn6M-36" edge="1">
          <mxGeometry relative="1" as="geometry" />
        </mxCell>
        <mxCell id="HUSUJuAqTIokaHn7cn6M-38" value="&lt;font color=&quot;#dde9f5&quot;&gt;netns:&lt;/font&gt;&amp;nbsp;container2" style="rounded=0;whiteSpace=wrap;html=1;fontSize=12;align=center;fontFamily=Manrope;fontSource=https%3A%2F%2Ffonts.googleapis.com%2Fcss%3Ffamily%3DManrope;fontColor=#FFFFFF;fillColor=#98A2AE;rotation=0;strokeColor=none;horizontal=0;verticalAlign=middle;" parent="1" vertex="1">
          <mxGeometry x="433.5" y="365" width="26.5" height="107.5" as="geometry" />
        </mxCell>
        <mxCell id="HUSUJuAqTIokaHn7cn6M-39" value="e1-1" style="rounded=0;whiteSpace=wrap;html=1;fontFamily=Manrope;fontSize=12;fontColor=#FFFFFF;align=center;strokeColor=none;rotation=0;horizontal=1;fillColor=#001135;" parent="1" vertex="1">
          <mxGeometry x="200" y="410.62" width="30" height="16.25" as="geometry" />
        </mxCell>
        <mxCell id="HUSUJuAqTIokaHn7cn6M-40" value="eth1" style="rounded=0;whiteSpace=wrap;html=1;fontFamily=Manrope;fontSize=12;fontColor=#FFFFFF;align=center;strokeColor=none;rotation=0;horizontal=1;fillColor=#001135;" parent="1" vertex="1">
          <mxGeometry x="280" y="410.62" width="28.5" height="16.25" as="geometry" />
        </mxCell>
        <mxCell id="HUSUJuAqTIokaHn7cn6M-41" style="edgeStyle=orthogonalEdgeStyle;rounded=0;orthogonalLoop=1;jettySize=auto;html=1;exitX=1;exitY=0.5;exitDx=0;exitDy=0;entryX=0;entryY=0.5;entryDx=0;entryDy=0;fontFamily=Manrope;fontSize=12;fontColor=#FFFFFF;endArrow=oval;endFill=1;startArrow=oval;startFill=1;strokeColor=#001135;" parent="1" source="HUSUJuAqTIokaHn7cn6M-39" target="HUSUJuAqTIokaHn7cn6M-40" edge="1">
          <mxGeometry relative="1" as="geometry">
            <mxPoint x="145" y="379.99" as="sourcePoint" />
            <mxPoint x="145.0050000000001" y="324.99" as="targetPoint" />
          </mxGeometry>
        </mxCell>
        <mxCell id="HUSUJuAqTIokaHn7cn6M-42" value="" style="group" parent="1" vertex="1" connectable="0">
          <mxGeometry x="762" y="333" width="50" height="50" as="geometry" />
        </mxCell>
        <mxCell id="HUSUJuAqTIokaHn7cn6M-43" value="" style="group" parent="HUSUJuAqTIokaHn7cn6M-42" vertex="1" connectable="0">
          <mxGeometry width="50" height="50" as="geometry" />
        </mxCell>
        <mxCell id="HUSUJuAqTIokaHn7cn6M-44" value="" style="whiteSpace=wrap;html=1;aspect=fixed;fillColor=#001135;strokeColor=none;connectable=1;allowArrows=1;fontFamily=Manrope;fontSource=https%3A%2F%2Ffonts.googleapis.com%2Fcss%3Ffamily%3DManrope;" parent="HUSUJuAqTIokaHn7cn6M-43" vertex="1">
          <mxGeometry width="50" height="50" as="geometry" />
        </mxCell>
        <mxCell id="HUSUJuAqTIokaHn7cn6M-45" value="" style="endArrow=open;html=1;edgeStyle=orthogonalEdgeStyle;rounded=0;endFill=0;startSize=6;endSize=2;strokeColor=#FFFFFF;fontFamily=Manrope;fontSource=https%3A%2F%2Ffonts.googleapis.com%2Fcss%3Ffamily%3DManrope;" parent="HUSUJuAqTIokaHn7cn6M-43" edge="1">
          <mxGeometry width="83.33333333333334" height="83.33333333333334" as="geometry">
            <mxPoint x="5" y="20" as="sourcePoint" />
            <mxPoint x="18.333333333333336" y="5" as="targetPoint" />
            <Array as="points">
              <mxPoint x="18.333333333333336" y="20" />
            </Array>
          </mxGeometry>
        </mxCell>
        <mxCell id="HUSUJuAqTIokaHn7cn6M-46" value="" style="endArrow=open;html=1;edgeStyle=orthogonalEdgeStyle;rounded=0;endFill=0;startSize=6;endSize=2;strokeColor=#FFFFFF;fontFamily=Manrope;fontSource=https%3A%2F%2Ffonts.googleapis.com%2Fcss%3Ffamily%3DManrope;" parent="HUSUJuAqTIokaHn7cn6M-43" edge="1">
          <mxGeometry width="83.33333333333334" height="83.33333333333334" as="geometry">
            <mxPoint x="18.333333333333336" y="45" as="sourcePoint" />
            <mxPoint x="5" y="31.666666666666668" as="targetPoint" />
            <Array as="points">
              <mxPoint x="18.333333333333336" y="31.666666666666668" />
            </Array>
          </mxGeometry>
        </mxCell>
        <mxCell id="HUSUJuAqTIokaHn7cn6M-47" value="" style="endArrow=open;html=1;edgeStyle=orthogonalEdgeStyle;rounded=0;endFill=0;startSize=6;endSize=2;strokeColor=#FFFFFF;fontFamily=Manrope;fontSource=https%3A%2F%2Ffonts.googleapis.com%2Fcss%3Ffamily%3DManrope;" parent="HUSUJuAqTIokaHn7cn6M-43" edge="1">
          <mxGeometry width="83.33333333333334" height="83.33333333333334" as="geometry">
            <mxPoint x="30" y="5" as="sourcePoint" />
            <mxPoint x="45" y="20" as="targetPoint" />
            <Array as="points">
              <mxPoint x="30" y="20" />
            </Array>
          </mxGeometry>
        </mxCell>
        <mxCell id="HUSUJuAqTIokaHn7cn6M-48" value="" style="endArrow=open;html=1;edgeStyle=orthogonalEdgeStyle;rounded=0;endFill=0;startSize=6;endSize=2;strokeColor=#FFFFFF;fontFamily=Manrope;fontSource=https%3A%2F%2Ffonts.googleapis.com%2Fcss%3Ffamily%3DManrope;" parent="HUSUJuAqTIokaHn7cn6M-43" edge="1">
          <mxGeometry width="83.33333333333334" height="83.33333333333334" as="geometry">
            <mxPoint x="45" y="31.666666666666668" as="sourcePoint" />
            <mxPoint x="30" y="45" as="targetPoint" />
            <Array as="points">
              <mxPoint x="30" y="31.666666666666668" />
            </Array>
          </mxGeometry>
        </mxCell>
        <mxCell id="HUSUJuAqTIokaHn7cn6M-49" value="&lt;font&gt;sonic&lt;/font&gt;" style="text;html=1;align=center;verticalAlign=middle;resizable=0;points=[];autosize=1;fontSize=14;fontFamily=Manrope;fontStyle=0;fontColor=#FFFFFF;" parent="1" vertex="1">
          <mxGeometry x="764.5" y="385" width="46" height="22" as="geometry" />
        </mxCell>
        <mxCell id="HUSUJuAqTIokaHn7cn6M-50" style="edgeStyle=orthogonalEdgeStyle;rounded=0;orthogonalLoop=1;jettySize=auto;html=1;fontFamily=Manrope;fontSize=12;fontColor=#FFFFFF;endArrow=oval;endFill=1;startArrow=oval;startFill=1;strokeColor=#4BDD33;" parent="1" edge="1">
          <mxGeometry relative="1" as="geometry">
            <mxPoint x="786.7600000000002" y="293" as="sourcePoint" />
            <mxPoint x="786.7600000000002" y="333" as="targetPoint" />
          </mxGeometry>
        </mxCell>
        <mxCell id="HUSUJuAqTIokaHn7cn6M-51" style="edgeStyle=orthogonalEdgeStyle;rounded=0;orthogonalLoop=1;jettySize=auto;html=1;fontFamily=Manrope;fontSize=12;fontColor=#FFFFFF;endArrow=oval;endFill=1;startArrow=oval;startFill=1;entryX=1;entryY=0.5;entryDx=0;entryDy=0;exitX=0;exitY=0.5;exitDx=0;exitDy=0;strokeColor=#98A2AE;" parent="1" source="HUSUJuAqTIokaHn7cn6M-53" target="HUSUJuAqTIokaHn7cn6M-52" edge="1">
          <mxGeometry relative="1" as="geometry">
            <mxPoint x="625" y="298" as="sourcePoint" />
            <mxPoint x="625" y="338" as="targetPoint" />
          </mxGeometry>
        </mxCell>
        <mxCell id="HUSUJuAqTIokaHn7cn6M-52" value="e1-1" style="rounded=0;whiteSpace=wrap;html=1;fontFamily=Manrope;fontSize=12;fontColor=#FFFFFF;align=center;strokeColor=none;rotation=0;horizontal=1;fillColor=#98A2AE;" parent="1" vertex="1">
          <mxGeometry x="645" y="349.87" width="30" height="16.25" as="geometry" />
        </mxCell>
        <mxCell id="HUSUJuAqTIokaHn7cn6M-53" value="Ethernet0" style="rounded=0;whiteSpace=wrap;html=1;fontFamily=Manrope;fontSize=12;fontColor=#FFFFFF;align=center;strokeColor=none;rotation=0;horizontal=1;fillColor=#98A2AE;" parent="1" vertex="1">
          <mxGeometry x="700" y="349.38" width="62" height="16.25" as="geometry" />
        </mxCell>
        <mxCell id="HUSUJuAqTIokaHn7cn6M-54" value="&lt;font style=&quot;font-size: 12px&quot;&gt;&lt;font color=&quot;#ffffff&quot;&gt;docker network:&lt;/font&gt;&lt;br&gt;&lt;/font&gt;&lt;span style=&quot;font-size: 12px&quot;&gt;&lt;font color=&quot;#bec8d2&quot;&gt;clab&lt;/font&gt;&lt;/span&gt;" style="text;html=1;align=right;verticalAlign=middle;resizable=0;points=[];autosize=1;fontSize=10;fontFamily=Manrope;fontColor=#001135;" parent="1" vertex="1">
          <mxGeometry x="495" y="277.5" width="100" height="30" as="geometry" />
        </mxCell>
      </root>
    </mxGraphModel>
  </diagram>
  <diagram name="[1] bgp" id="VE4x6YazyZ2CrUnz0_BO">
    <mxGraphModel dx="2052" dy="1149" grid="1" gridSize="1" guides="1" tooltips="1" connect="1" arrows="1" fold="1" page="1" pageScale="1" pageWidth="827" pageHeight="1169" background="#4D5766" math="0" shadow="0">
      <root>
        <mxCell id="YSi4LTzmmD1kewjckfzm-0" />
        <mxCell id="YSi4LTzmmD1kewjckfzm-1" parent="YSi4LTzmmD1kewjckfzm-0" />
        <mxCell id="_ZjZlvdOe3W0lZG1KsHF-0" value="" style="rounded=0;whiteSpace=wrap;html=1;fontSize=12;align=center;strokeColor=none;fontFamily=Manrope;fontSource=https%3A%2F%2Ffonts.googleapis.com%2Fcss%3Ffamily%3DManrope;fontColor=#DDE9F5;fillColor=#BEC8D2;" parent="YSi4LTzmmD1kewjckfzm-1" vertex="1">
          <mxGeometry x="208" y="314" width="405" height="107.5" as="geometry" />
        </mxCell>
        <mxCell id="YSi4LTzmmD1kewjckfzm-22" value="" style="group" parent="YSi4LTzmmD1kewjckfzm-1" vertex="1" connectable="0">
          <mxGeometry x="222" y="338.5" width="50" height="50" as="geometry" />
        </mxCell>
        <mxCell id="YSi4LTzmmD1kewjckfzm-23" value="" style="group" parent="YSi4LTzmmD1kewjckfzm-22" vertex="1" connectable="0">
          <mxGeometry width="50" height="50" as="geometry" />
        </mxCell>
        <mxCell id="YSi4LTzmmD1kewjckfzm-24" value="" style="whiteSpace=wrap;html=1;aspect=fixed;fillColor=#001135;strokeColor=none;connectable=1;allowArrows=1;fontFamily=Manrope;fontSource=https%3A%2F%2Ffonts.googleapis.com%2Fcss%3Ffamily%3DManrope;" parent="YSi4LTzmmD1kewjckfzm-23" vertex="1">
          <mxGeometry width="50" height="50" as="geometry" />
        </mxCell>
        <mxCell id="YSi4LTzmmD1kewjckfzm-25" value="" style="endArrow=open;html=1;edgeStyle=orthogonalEdgeStyle;rounded=0;endFill=0;startSize=6;endSize=2;strokeColor=#FFFFFF;fontFamily=Manrope;fontSource=https%3A%2F%2Ffonts.googleapis.com%2Fcss%3Ffamily%3DManrope;" parent="YSi4LTzmmD1kewjckfzm-23" edge="1">
          <mxGeometry width="83.33333333333334" height="83.33333333333334" as="geometry">
            <mxPoint x="5" y="20" as="sourcePoint" />
            <mxPoint x="18.333333333333336" y="5" as="targetPoint" />
            <Array as="points">
              <mxPoint x="18.333333333333336" y="20" />
            </Array>
          </mxGeometry>
        </mxCell>
        <mxCell id="YSi4LTzmmD1kewjckfzm-26" value="" style="endArrow=open;html=1;edgeStyle=orthogonalEdgeStyle;rounded=0;endFill=0;startSize=6;endSize=2;strokeColor=#FFFFFF;fontFamily=Manrope;fontSource=https%3A%2F%2Ffonts.googleapis.com%2Fcss%3Ffamily%3DManrope;" parent="YSi4LTzmmD1kewjckfzm-23" edge="1">
          <mxGeometry width="83.33333333333334" height="83.33333333333334" as="geometry">
            <mxPoint x="18.333333333333336" y="45" as="sourcePoint" />
            <mxPoint x="5" y="31.666666666666668" as="targetPoint" />
            <Array as="points">
              <mxPoint x="18.333333333333336" y="31.666666666666668" />
            </Array>
          </mxGeometry>
        </mxCell>
        <mxCell id="YSi4LTzmmD1kewjckfzm-27" value="" style="endArrow=open;html=1;edgeStyle=orthogonalEdgeStyle;rounded=0;endFill=0;startSize=6;endSize=2;strokeColor=#FFFFFF;fontFamily=Manrope;fontSource=https%3A%2F%2Ffonts.googleapis.com%2Fcss%3Ffamily%3DManrope;" parent="YSi4LTzmmD1kewjckfzm-23" edge="1">
          <mxGeometry width="83.33333333333334" height="83.33333333333334" as="geometry">
            <mxPoint x="30" y="5" as="sourcePoint" />
            <mxPoint x="45" y="20" as="targetPoint" />
            <Array as="points">
              <mxPoint x="30" y="20" />
            </Array>
          </mxGeometry>
        </mxCell>
        <mxCell id="YSi4LTzmmD1kewjckfzm-28" value="" style="endArrow=open;html=1;edgeStyle=orthogonalEdgeStyle;rounded=0;endFill=0;startSize=6;endSize=2;strokeColor=#FFFFFF;fontFamily=Manrope;fontSource=https%3A%2F%2Ffonts.googleapis.com%2Fcss%3Ffamily%3DManrope;" parent="YSi4LTzmmD1kewjckfzm-23" edge="1">
          <mxGeometry width="83.33333333333334" height="83.33333333333334" as="geometry">
            <mxPoint x="45" y="31.666666666666668" as="sourcePoint" />
            <mxPoint x="30" y="45" as="targetPoint" />
            <Array as="points">
              <mxPoint x="30" y="31.666666666666668" />
            </Array>
          </mxGeometry>
        </mxCell>
        <mxCell id="YSi4LTzmmD1kewjckfzm-29" value="&lt;font&gt;srl&lt;/font&gt;" style="text;html=1;align=center;verticalAlign=middle;resizable=0;points=[];autosize=1;fontSize=14;fontFamily=Manrope;fontStyle=0;fontColor=#FFFFFF;" parent="YSi4LTzmmD1kewjckfzm-1" vertex="1">
          <mxGeometry x="232" y="388.5" width="30" height="25" as="geometry" />
        </mxCell>
        <mxCell id="YSi4LTzmmD1kewjckfzm-31" style="edgeStyle=orthogonalEdgeStyle;rounded=0;orthogonalLoop=1;jettySize=auto;html=1;fontFamily=Manrope;fontSize=12;fontColor=#FFFFFF;endArrow=oval;endFill=1;startArrow=oval;startFill=1;strokeColor=#00C9FF;" parent="YSi4LTzmmD1kewjckfzm-1" target="YSi4LTzmmD1kewjckfzm-24" edge="1">
          <mxGeometry relative="1" as="geometry">
            <mxPoint x="247" y="298.5" as="sourcePoint" />
            <mxPoint x="246.9949999999999" y="326.5" as="targetPoint" />
          </mxGeometry>
        </mxCell>
        <mxCell id="YSi4LTzmmD1kewjckfzm-43" value="" style="group" parent="YSi4LTzmmD1kewjckfzm-1" vertex="1" connectable="0">
          <mxGeometry x="535" y="338.5" width="50" height="50" as="geometry" />
        </mxCell>
        <mxCell id="YSi4LTzmmD1kewjckfzm-44" value="" style="group" parent="YSi4LTzmmD1kewjckfzm-43" vertex="1" connectable="0">
          <mxGeometry width="50" height="50" as="geometry" />
        </mxCell>
        <mxCell id="YSi4LTzmmD1kewjckfzm-45" value="" style="whiteSpace=wrap;html=1;aspect=fixed;fillColor=#001135;strokeColor=none;connectable=1;allowArrows=1;fontFamily=Manrope;fontSource=https%3A%2F%2Ffonts.googleapis.com%2Fcss%3Ffamily%3DManrope;" parent="YSi4LTzmmD1kewjckfzm-44" vertex="1">
          <mxGeometry width="50" height="50" as="geometry" />
        </mxCell>
        <mxCell id="YSi4LTzmmD1kewjckfzm-46" value="" style="endArrow=open;html=1;edgeStyle=orthogonalEdgeStyle;rounded=0;endFill=0;startSize=6;endSize=2;strokeColor=#FFFFFF;fontFamily=Manrope;fontSource=https%3A%2F%2Ffonts.googleapis.com%2Fcss%3Ffamily%3DManrope;" parent="YSi4LTzmmD1kewjckfzm-44" edge="1">
          <mxGeometry width="83.33333333333334" height="83.33333333333334" as="geometry">
            <mxPoint x="5" y="20" as="sourcePoint" />
            <mxPoint x="18.333333333333336" y="5" as="targetPoint" />
            <Array as="points">
              <mxPoint x="18.333333333333336" y="20" />
            </Array>
          </mxGeometry>
        </mxCell>
        <mxCell id="YSi4LTzmmD1kewjckfzm-47" value="" style="endArrow=open;html=1;edgeStyle=orthogonalEdgeStyle;rounded=0;endFill=0;startSize=6;endSize=2;strokeColor=#FFFFFF;fontFamily=Manrope;fontSource=https%3A%2F%2Ffonts.googleapis.com%2Fcss%3Ffamily%3DManrope;" parent="YSi4LTzmmD1kewjckfzm-44" edge="1">
          <mxGeometry width="83.33333333333334" height="83.33333333333334" as="geometry">
            <mxPoint x="18.333333333333336" y="45" as="sourcePoint" />
            <mxPoint x="5" y="31.666666666666668" as="targetPoint" />
            <Array as="points">
              <mxPoint x="18.333333333333336" y="31.666666666666668" />
            </Array>
          </mxGeometry>
        </mxCell>
        <mxCell id="YSi4LTzmmD1kewjckfzm-48" value="" style="endArrow=open;html=1;edgeStyle=orthogonalEdgeStyle;rounded=0;endFill=0;startSize=6;endSize=2;strokeColor=#FFFFFF;fontFamily=Manrope;fontSource=https%3A%2F%2Ffonts.googleapis.com%2Fcss%3Ffamily%3DManrope;" parent="YSi4LTzmmD1kewjckfzm-44" edge="1">
          <mxGeometry width="83.33333333333334" height="83.33333333333334" as="geometry">
            <mxPoint x="30" y="5" as="sourcePoint" />
            <mxPoint x="45" y="20" as="targetPoint" />
            <Array as="points">
              <mxPoint x="30" y="20" />
            </Array>
          </mxGeometry>
        </mxCell>
        <mxCell id="YSi4LTzmmD1kewjckfzm-49" value="" style="endArrow=open;html=1;edgeStyle=orthogonalEdgeStyle;rounded=0;endFill=0;startSize=6;endSize=2;strokeColor=#FFFFFF;fontFamily=Manrope;fontSource=https%3A%2F%2Ffonts.googleapis.com%2Fcss%3Ffamily%3DManrope;" parent="YSi4LTzmmD1kewjckfzm-44" edge="1">
          <mxGeometry width="83.33333333333334" height="83.33333333333334" as="geometry">
            <mxPoint x="45" y="31.666666666666668" as="sourcePoint" />
            <mxPoint x="30" y="45" as="targetPoint" />
            <Array as="points">
              <mxPoint x="30" y="31.666666666666668" />
            </Array>
          </mxGeometry>
        </mxCell>
        <mxCell id="YSi4LTzmmD1kewjckfzm-50" value="&lt;font&gt;sonic&lt;/font&gt;" style="text;html=1;align=center;verticalAlign=middle;resizable=0;points=[];autosize=1;fontSize=14;fontFamily=Manrope;fontStyle=0;fontColor=#FFFFFF;" parent="YSi4LTzmmD1kewjckfzm-1" vertex="1">
          <mxGeometry x="537.5" y="390.5" width="46" height="22" as="geometry" />
        </mxCell>
        <mxCell id="YSi4LTzmmD1kewjckfzm-51" style="edgeStyle=orthogonalEdgeStyle;rounded=0;orthogonalLoop=1;jettySize=auto;html=1;fontFamily=Manrope;fontSize=12;fontColor=#FFFFFF;endArrow=oval;endFill=1;startArrow=oval;startFill=1;strokeColor=#00C9FF;" parent="YSi4LTzmmD1kewjckfzm-1" edge="1">
          <mxGeometry relative="1" as="geometry">
            <mxPoint x="559.7600000000002" y="298.5" as="sourcePoint" />
            <mxPoint x="559.7600000000002" y="338.5" as="targetPoint" />
          </mxGeometry>
        </mxCell>
        <mxCell id="YSi4LTzmmD1kewjckfzm-52" style="edgeStyle=orthogonalEdgeStyle;rounded=0;orthogonalLoop=1;jettySize=auto;html=1;fontFamily=Manrope;fontSize=12;fontColor=#FFFFFF;endArrow=oval;endFill=1;startArrow=oval;startFill=1;entryX=1;entryY=0.5;entryDx=0;entryDy=0;exitX=0;exitY=0.5;exitDx=0;exitDy=0;strokeColor=#98A2AE;" parent="YSi4LTzmmD1kewjckfzm-1" source="YSi4LTzmmD1kewjckfzm-54" target="YSi4LTzmmD1kewjckfzm-53" edge="1">
          <mxGeometry relative="1" as="geometry">
            <mxPoint x="376" y="303.5" as="sourcePoint" />
            <mxPoint x="376" y="343.5" as="targetPoint" />
          </mxGeometry>
        </mxCell>
        <mxCell id="YSi4LTzmmD1kewjckfzm-53" value="e-1/1" style="rounded=0;whiteSpace=wrap;html=1;fontFamily=Manrope;fontSize=12;fontColor=#FFFFFF;align=center;strokeColor=none;rotation=0;horizontal=1;fillColor=#98A2AE;" parent="YSi4LTzmmD1kewjckfzm-1" vertex="1">
          <mxGeometry x="272" y="355.37" width="30" height="16.25" as="geometry" />
        </mxCell>
        <mxCell id="YSi4LTzmmD1kewjckfzm-54" value="Ethernet0" style="rounded=0;whiteSpace=wrap;html=1;fontFamily=Manrope;fontSize=12;fontColor=#FFFFFF;align=center;strokeColor=none;rotation=0;horizontal=1;fillColor=#98A2AE;" parent="YSi4LTzmmD1kewjckfzm-1" vertex="1">
          <mxGeometry x="467" y="354.88" width="68" height="16.25" as="geometry" />
        </mxCell>
        <mxCell id="_ZjZlvdOe3W0lZG1KsHF-1" value="&lt;b&gt;AS: 65001&lt;/b&gt;" style="text;html=1;align=center;verticalAlign=middle;resizable=0;points=[];autosize=1;fontSize=14;fontFamily=Manrope;fontStyle=0;fontColor=#FFFFFF;" parent="YSi4LTzmmD1kewjckfzm-1" vertex="1">
          <mxGeometry x="361" y="390.5" width="75" height="22" as="geometry" />
        </mxCell>
        <mxCell id="_ZjZlvdOe3W0lZG1KsHF-2" value="&lt;div style=&quot;font-size: 10px;&quot;&gt;&lt;span style=&quot;color: rgb(255, 255, 255); font-size: 10px;&quot;&gt;192.168.1.0/24&lt;/span&gt;&lt;/div&gt;&lt;div style=&quot;font-size: 10px;&quot;&gt;&lt;br style=&quot;font-size: 10px;&quot;&gt;&lt;/div&gt;" style="text;html=1;align=center;verticalAlign=middle;resizable=0;points=[];autosize=1;fontSize=10;fontFamily=Fira Code;fontColor=#001135;fontSource=https%3A%2F%2Ffonts.googleapis.com%2Fcss%3Ffamily%3DFira%2BCode;connectable=0;rotation=0;opacity=60;" parent="YSi4LTzmmD1kewjckfzm-1" vertex="1">
          <mxGeometry x="335" y="347.62" width="95" height="29" as="geometry" />
        </mxCell>
        <mxCell id="_ZjZlvdOe3W0lZG1KsHF-3" value="&lt;div style=&quot;font-size: 8px&quot;&gt;&lt;span style=&quot;color: rgb(255 , 255 , 255) ; font-size: 8px&quot;&gt;.1&lt;/span&gt;&lt;/div&gt;&lt;div style=&quot;font-size: 8px&quot;&gt;&lt;br style=&quot;font-size: 8px&quot;&gt;&lt;/div&gt;" style="text;html=1;align=center;verticalAlign=middle;resizable=0;points=[];autosize=1;fontSize=8;fontFamily=Fira Code;fontColor=#001135;fontSource=https%3A%2F%2Ffonts.googleapis.com%2Fcss%3Ffamily%3DFira%2BCode;connectable=0;rotation=0;opacity=60;" parent="YSi4LTzmmD1kewjckfzm-1" vertex="1">
          <mxGeometry x="300" y="348" width="21" height="25" as="geometry" />
        </mxCell>
        <mxCell id="_ZjZlvdOe3W0lZG1KsHF-4" value="&lt;div style=&quot;font-size: 8px&quot;&gt;&lt;span style=&quot;color: rgb(255 , 255 , 255) ; font-size: 8px&quot;&gt;.2&lt;/span&gt;&lt;/div&gt;&lt;div style=&quot;font-size: 8px&quot;&gt;&lt;br style=&quot;font-size: 8px&quot;&gt;&lt;/div&gt;" style="text;html=1;align=center;verticalAlign=middle;resizable=0;points=[];autosize=1;fontSize=8;fontFamily=Fira Code;fontColor=#001135;fontSource=https%3A%2F%2Ffonts.googleapis.com%2Fcss%3Ffamily%3DFira%2BCode;connectable=0;rotation=0;opacity=60;" parent="YSi4LTzmmD1kewjckfzm-1" vertex="1">
          <mxGeometry x="448" y="348" width="21" height="25" as="geometry" />
        </mxCell>
        <mxCell id="_ZjZlvdOe3W0lZG1KsHF-5" value="&lt;div style=&quot;font-size: 10px&quot;&gt;&lt;font color=&quot;#ffffff&quot;&gt;lo0.0: 10.10.10.1&lt;/font&gt;&lt;/div&gt;" style="text;html=1;align=center;verticalAlign=middle;resizable=0;points=[];autosize=1;fontSize=10;fontFamily=Fira Code;fontColor=#001135;fontSource=https%3A%2F%2Ffonts.googleapis.com%2Fcss%3Ffamily%3DFira%2BCode;connectable=0;rotation=0;opacity=60;" parent="YSi4LTzmmD1kewjckfzm-1" vertex="1">
          <mxGeometry x="192" y="279" width="113" height="17" as="geometry" />
        </mxCell>
        <mxCell id="_ZjZlvdOe3W0lZG1KsHF-6" value="&lt;div style=&quot;font-size: 10px&quot;&gt;&lt;font color=&quot;#ffffff&quot;&gt;lo0.0: 10.10.10.2&lt;/font&gt;&lt;/div&gt;" style="text;html=1;align=center;verticalAlign=middle;resizable=0;points=[];autosize=1;fontSize=10;fontFamily=Fira Code;fontColor=#001135;fontSource=https%3A%2F%2Ffonts.googleapis.com%2Fcss%3Ffamily%3DFira%2BCode;connectable=0;rotation=0;opacity=60;" parent="YSi4LTzmmD1kewjckfzm-1" vertex="1">
          <mxGeometry x="503.5" y="279" width="113" height="17" as="geometry" />
        </mxCell>
      </root>
    </mxGraphModel>
  </diagram>
  <diagram name="[2] srlfrr lab" id="JYJ7AfcsHlzN0FQLS9Y3">
    <mxGraphModel dx="1415" dy="792" grid="1" gridSize="1" guides="1" tooltips="1" connect="1" arrows="1" fold="1" page="1" pageScale="1" pageWidth="827" pageHeight="1169" background="#4D5766" math="0" shadow="0">
      <root>
        <mxCell id="KrK5M_bBt51ARahH1-8I-0" />
        <mxCell id="KrK5M_bBt51ARahH1-8I-1" parent="KrK5M_bBt51ARahH1-8I-0" />
        <mxCell id="KrK5M_bBt51ARahH1-8I-2" value="" style="rounded=0;whiteSpace=wrap;html=1;fontSize=12;align=center;fontFamily=Manrope;fontSource=https%3A%2F%2Ffonts.googleapis.com%2Fcss%3Ffamily%3DManrope;fontColor=#FFFFFF;dashed=1;strokeColor=none;fillColor=#DDE9F5;" vertex="1" parent="KrK5M_bBt51ARahH1-8I-1">
          <mxGeometry x="40" y="205" width="430" height="285" as="geometry" />
        </mxCell>
        <mxCell id="KrK5M_bBt51ARahH1-8I-3" value="&lt;span style=&quot;font-size: 14px&quot;&gt;Lab host&lt;/span&gt;" style="rounded=0;whiteSpace=wrap;html=1;fontSize=12;align=center;fontFamily=Manrope;fontSource=https%3A%2F%2Ffonts.googleapis.com%2Fcss%3Ffamily%3DManrope;dashed=1;strokeColor=none;fillColor=#98A2AE;fontColor=#FFFFFF;" vertex="1" parent="KrK5M_bBt51ARahH1-8I-1">
          <mxGeometry x="40" y="185" width="430" height="20" as="geometry" />
        </mxCell>
        <mxCell id="KrK5M_bBt51ARahH1-8I-4" value="" style="rounded=0;whiteSpace=wrap;html=1;fontSize=12;align=center;strokeColor=none;fontFamily=Manrope;fontSource=https%3A%2F%2Ffonts.googleapis.com%2Fcss%3Ffamily%3DManrope;fontColor=#DDE9F5;fillColor=#BEC8D2;" vertex="1" parent="KrK5M_bBt51ARahH1-8I-1">
          <mxGeometry x="76.5" y="365" width="163.5" height="107.5" as="geometry" />
        </mxCell>
        <mxCell id="KrK5M_bBt51ARahH1-8I-5" value="SR Linux" style="rounded=0;whiteSpace=wrap;html=1;fontSize=12;align=center;strokeColor=none;fontFamily=Manrope;fontSource=https%3A%2F%2Ffonts.googleapis.com%2Fcss%3Ffamily%3DManrope;fontColor=#FFFFFF;fillColor=#124191;" vertex="1" parent="KrK5M_bBt51ARahH1-8I-1">
          <mxGeometry x="80" y="400" width="120" height="37.5" as="geometry" />
        </mxCell>
        <mxCell id="KrK5M_bBt51ARahH1-8I-6" value="mgmt" style="rounded=0;whiteSpace=wrap;html=1;fontFamily=Manrope;fontSize=12;fontColor=#FFFFFF;align=center;fillColor=#4BDD33;strokeColor=none;" vertex="1" parent="KrK5M_bBt51ARahH1-8I-1">
          <mxGeometry x="118.25" y="385" width="43.5" height="15" as="geometry" />
        </mxCell>
        <mxCell id="KrK5M_bBt51ARahH1-8I-7" value="" style="rounded=0;whiteSpace=wrap;html=1;fontSize=12;align=center;strokeColor=none;fontFamily=Manrope;fontSource=https%3A%2F%2Ffonts.googleapis.com%2Fcss%3Ffamily%3DManrope;fontColor=#FFFFFF;fillColor=#BEC8D2;" vertex="1" parent="KrK5M_bBt51ARahH1-8I-1">
          <mxGeometry x="76.5" y="216" width="383.5" height="126" as="geometry" />
        </mxCell>
        <mxCell id="KrK5M_bBt51ARahH1-8I-8" value="&lt;font face=&quot;Fira Code&quot; data-font-src=&quot;https://fonts.googleapis.com/css?family=Fira+Code&quot; style=&quot;font-size: 10px&quot;&gt;&lt;br&gt;&lt;/font&gt;" style="rounded=0;whiteSpace=wrap;html=1;fontSize=12;align=left;strokeColor=none;fontFamily=Manrope;fontSource=https%3A%2F%2Ffonts.googleapis.com%2Fcss%3Ffamily%3DManrope;fontColor=#FFFFFF;spacingLeft=4;fillColor=#124191;verticalAlign=middle;connectable=0;" vertex="1" parent="KrK5M_bBt51ARahH1-8I-1">
          <mxGeometry x="85" y="240" width="365" height="95" as="geometry" />
        </mxCell>
        <mxCell id="KrK5M_bBt51ARahH1-8I-9" value="veth&lt;font color=&quot;#bec8d2&quot;&gt;XXX&lt;/font&gt;" style="rounded=0;whiteSpace=wrap;html=1;fontFamily=Manrope;fontSize=12;fontColor=#FFFFFF;align=center;fillColor=#4BDD33;strokeColor=none;" vertex="1" parent="KrK5M_bBt51ARahH1-8I-1">
          <mxGeometry x="113.63" y="307.5" width="52.75" height="17.5" as="geometry" />
        </mxCell>
        <mxCell id="KrK5M_bBt51ARahH1-8I-10" style="edgeStyle=orthogonalEdgeStyle;rounded=0;orthogonalLoop=1;jettySize=auto;html=1;exitX=0.5;exitY=0;exitDx=0;exitDy=0;entryX=0.5;entryY=1;entryDx=0;entryDy=0;fontFamily=Manrope;fontSize=12;fontColor=#FFFFFF;endArrow=oval;endFill=1;startArrow=oval;startFill=1;strokeColor=#4BDD33;" edge="1" parent="KrK5M_bBt51ARahH1-8I-1" source="KrK5M_bBt51ARahH1-8I-6" target="KrK5M_bBt51ARahH1-8I-9">
          <mxGeometry relative="1" as="geometry" />
        </mxCell>
        <mxCell id="KrK5M_bBt51ARahH1-8I-11" value="&lt;font color=&quot;#dde9f5&quot;&gt;netns:&lt;/font&gt;&amp;nbsp;default" style="rounded=0;whiteSpace=wrap;html=1;fontSize=12;align=center;fontFamily=Manrope;fontSource=https%3A%2F%2Ffonts.googleapis.com%2Fcss%3Ffamily%3DManrope;fontColor=#FFFFFF;fillColor=#98A2AE;rotation=0;strokeColor=none;horizontal=0;verticalAlign=middle;" vertex="1" parent="KrK5M_bBt51ARahH1-8I-1">
          <mxGeometry x="50" y="216" width="26.5" height="126" as="geometry" />
        </mxCell>
        <mxCell id="KrK5M_bBt51ARahH1-8I-12" value="&lt;font color=&quot;#dde9f5&quot;&gt;netns:&lt;/font&gt;&amp;nbsp;container1" style="rounded=0;whiteSpace=wrap;html=1;fontSize=12;align=center;fontFamily=Manrope;fontSource=https%3A%2F%2Ffonts.googleapis.com%2Fcss%3Ffamily%3DManrope;fontColor=#FFFFFF;fillColor=#98A2AE;rotation=0;strokeColor=none;horizontal=0;verticalAlign=middle;" vertex="1" parent="KrK5M_bBt51ARahH1-8I-1">
          <mxGeometry x="50" y="365" width="26.5" height="107.5" as="geometry" />
        </mxCell>
        <mxCell id="KrK5M_bBt51ARahH1-8I-13" value="&lt;font color=&quot;#bec8d2&quot;&gt;docker network:&lt;/font&gt; clab&lt;font face=&quot;Fira Code&quot; data-font-src=&quot;https://fonts.googleapis.com/css?family=Fira+Code&quot; style=&quot;font-size: 10px&quot;&gt;&lt;br&gt;&lt;/font&gt;" style="rounded=0;whiteSpace=wrap;html=1;fontSize=12;align=left;strokeColor=none;fontFamily=Manrope;fontSource=https%3A%2F%2Ffonts.googleapis.com%2Fcss%3Ffamily%3DManrope;fontColor=#FFFFFF;spacingLeft=4;fillColor=#001135;" vertex="1" parent="KrK5M_bBt51ARahH1-8I-1">
          <mxGeometry x="85" y="220" width="365" height="20" as="geometry" />
        </mxCell>
        <mxCell id="KrK5M_bBt51ARahH1-8I-14" value="&lt;font&gt;Lab wiring diagram&lt;/font&gt;" style="text;html=1;align=center;verticalAlign=middle;resizable=0;points=[];autosize=1;fontSize=14;fontFamily=Manrope;fontStyle=0;fontColor=#FFFFFF;" vertex="1" parent="KrK5M_bBt51ARahH1-8I-1">
          <mxGeometry x="185" y="490" width="135" height="25" as="geometry" />
        </mxCell>
        <mxCell id="KrK5M_bBt51ARahH1-8I-15" value="br-&lt;font color=&quot;#98a2ae&quot;&gt;XXX&lt;/font&gt;" style="rounded=0;whiteSpace=wrap;html=1;fontSize=12;align=left;fontFamily=Manrope;fontSource=https%3A%2F%2Ffonts.googleapis.com%2Fcss%3Ffamily%3DManrope;dashed=1;strokeColor=none;fillColor=#DDE9F5;fontColor=#001135;spacingLeft=4;" vertex="1" parent="KrK5M_bBt51ARahH1-8I-1">
          <mxGeometry x="102.25" y="290" width="307.75" height="17.5" as="geometry" />
        </mxCell>
        <mxCell id="KrK5M_bBt51ARahH1-8I-16" value="&lt;font face=&quot;Fira Code&quot; data-font-src=&quot;https://fonts.googleapis.com/css?family=Fira+Code&quot;&gt;Pool&lt;br&gt;&lt;/font&gt;" style="rounded=0;whiteSpace=wrap;html=1;fontSize=12;align=center;strokeColor=none;fontFamily=Manrope;fontSource=https%3A%2F%2Ffonts.googleapis.com%2Fcss%3Ffamily%3DManrope;fontColor=#FFFFFF;spacingLeft=0;verticalAlign=middle;fillColor=#00C9FF;" vertex="1" parent="KrK5M_bBt51ARahH1-8I-1">
          <mxGeometry x="102" y="245" width="34.25" height="35" as="geometry" />
        </mxCell>
        <mxCell id="KrK5M_bBt51ARahH1-8I-17" value="&lt;font color=&quot;#98a2ae&quot; style=&quot;font-size: 12px ; line-height: 100%&quot;&gt;IPv4:&lt;/font&gt;&lt;span style=&quot;color: rgb(255 , 255 , 255)&quot;&gt;&amp;nbsp;&lt;/span&gt;&lt;font face=&quot;Fira Code&quot; data-font-src=&quot;https://fonts.googleapis.com/css?family=Fira+Code&quot; style=&quot;font-size: 10px&quot;&gt;172.20.20.0/24&lt;br&gt;&lt;span style=&quot;color: rgb(255 , 255 , 255) ; font-family: &amp;#34;manrope&amp;#34; ; font-size: 12px&quot;&gt;&lt;font color=&quot;#98a2ae&quot;&gt;IPv6:&lt;/font&gt;&amp;nbsp;&lt;/span&gt;&lt;font face=&quot;Fira Code&quot; data-font-src=&quot;https://fonts.googleapis.com/css?family=Fira+Code&quot;&gt;2001:172:20:20::/80&lt;/font&gt;&lt;/font&gt;" style="rounded=0;whiteSpace=wrap;html=1;fontSize=12;align=left;fontFamily=Manrope;fontSource=https%3A%2F%2Ffonts.googleapis.com%2Fcss%3Ffamily%3DManrope;dashed=1;strokeColor=none;fillColor=#DDE9F5;fontColor=#001135;" vertex="1" parent="KrK5M_bBt51ARahH1-8I-1">
          <mxGeometry x="136.25" y="245" width="150" height="35" as="geometry" />
        </mxCell>
        <mxCell id="KrK5M_bBt51ARahH1-8I-18" style="rounded=0;orthogonalLoop=1;jettySize=auto;html=1;fontFamily=Manrope;fontSize=12;fontColor=#FFFFFF;endArrow=oval;endFill=1;startArrow=oval;startFill=1;strokeColor=#4BDD33;" edge="1" parent="KrK5M_bBt51ARahH1-8I-1">
          <mxGeometry relative="1" as="geometry">
            <mxPoint x="332.75" y="260" as="sourcePoint" />
            <mxPoint x="300" y="290" as="targetPoint" />
            <Array as="points">
              <mxPoint x="312.75" y="260" />
            </Array>
          </mxGeometry>
        </mxCell>
        <mxCell id="KrK5M_bBt51ARahH1-8I-19" value="&lt;font face=&quot;Fira Code&quot; data-font-src=&quot;https://fonts.googleapis.com/css?family=Fira+Code&quot; style=&quot;font-size: 10px&quot;&gt;172.20.20.1&lt;/font&gt;" style="text;html=1;align=left;verticalAlign=middle;resizable=0;points=[];autosize=1;fontSize=14;fontFamily=Manrope;fontColor=#FFFFFF;" vertex="1" parent="KrK5M_bBt51ARahH1-8I-1">
          <mxGeometry x="338.75" y="245" width="80" height="25" as="geometry" />
        </mxCell>
        <mxCell id="KrK5M_bBt51ARahH1-8I-20" style="rounded=0;orthogonalLoop=1;jettySize=auto;html=1;fontFamily=Manrope;fontSize=12;fontColor=#FFFFFF;endArrow=oval;endFill=1;startArrow=oval;startFill=1;strokeColor=#4BDD33;" edge="1" parent="KrK5M_bBt51ARahH1-8I-1">
          <mxGeometry relative="1" as="geometry">
            <mxPoint x="332.75" y="275" as="sourcePoint" />
            <mxPoint x="300" y="290" as="targetPoint" />
            <Array as="points">
              <mxPoint x="312.75" y="275" />
            </Array>
          </mxGeometry>
        </mxCell>
        <mxCell id="KrK5M_bBt51ARahH1-8I-21" value="&lt;font face=&quot;Fira Code&quot; data-font-src=&quot;https://fonts.googleapis.com/css?family=Fira+Code&quot; style=&quot;font-size: 10px&quot;&gt;2001:172:20:20::1&lt;/font&gt;" style="text;html=1;align=left;verticalAlign=middle;resizable=0;points=[];autosize=1;fontSize=14;fontFamily=Manrope;fontColor=#FFFFFF;" vertex="1" parent="KrK5M_bBt51ARahH1-8I-1">
          <mxGeometry x="338.75" y="260" width="115" height="25" as="geometry" />
        </mxCell>
        <mxCell id="KrK5M_bBt51ARahH1-8I-22" value="" style="group" vertex="1" connectable="0" parent="KrK5M_bBt51ARahH1-8I-1">
          <mxGeometry x="595" y="333" width="50" height="50" as="geometry" />
        </mxCell>
        <mxCell id="KrK5M_bBt51ARahH1-8I-23" value="" style="group" vertex="1" connectable="0" parent="KrK5M_bBt51ARahH1-8I-22">
          <mxGeometry width="50" height="50" as="geometry" />
        </mxCell>
        <mxCell id="KrK5M_bBt51ARahH1-8I-24" value="" style="whiteSpace=wrap;html=1;aspect=fixed;fillColor=#001135;strokeColor=none;connectable=1;allowArrows=1;fontFamily=Manrope;fontSource=https%3A%2F%2Ffonts.googleapis.com%2Fcss%3Ffamily%3DManrope;" vertex="1" parent="KrK5M_bBt51ARahH1-8I-23">
          <mxGeometry width="50" height="50" as="geometry" />
        </mxCell>
        <mxCell id="KrK5M_bBt51ARahH1-8I-25" value="" style="endArrow=open;html=1;edgeStyle=orthogonalEdgeStyle;rounded=0;endFill=0;startSize=6;endSize=2;strokeColor=#FFFFFF;fontFamily=Manrope;fontSource=https%3A%2F%2Ffonts.googleapis.com%2Fcss%3Ffamily%3DManrope;" edge="1" parent="KrK5M_bBt51ARahH1-8I-23">
          <mxGeometry width="83.33333333333334" height="83.33333333333334" as="geometry">
            <mxPoint x="5" y="20" as="sourcePoint" />
            <mxPoint x="18.333333333333336" y="5" as="targetPoint" />
            <Array as="points">
              <mxPoint x="18.333333333333336" y="20" />
            </Array>
          </mxGeometry>
        </mxCell>
        <mxCell id="KrK5M_bBt51ARahH1-8I-26" value="" style="endArrow=open;html=1;edgeStyle=orthogonalEdgeStyle;rounded=0;endFill=0;startSize=6;endSize=2;strokeColor=#FFFFFF;fontFamily=Manrope;fontSource=https%3A%2F%2Ffonts.googleapis.com%2Fcss%3Ffamily%3DManrope;" edge="1" parent="KrK5M_bBt51ARahH1-8I-23">
          <mxGeometry width="83.33333333333334" height="83.33333333333334" as="geometry">
            <mxPoint x="18.333333333333336" y="45" as="sourcePoint" />
            <mxPoint x="5" y="31.666666666666668" as="targetPoint" />
            <Array as="points">
              <mxPoint x="18.333333333333336" y="31.666666666666668" />
            </Array>
          </mxGeometry>
        </mxCell>
        <mxCell id="KrK5M_bBt51ARahH1-8I-27" value="" style="endArrow=open;html=1;edgeStyle=orthogonalEdgeStyle;rounded=0;endFill=0;startSize=6;endSize=2;strokeColor=#FFFFFF;fontFamily=Manrope;fontSource=https%3A%2F%2Ffonts.googleapis.com%2Fcss%3Ffamily%3DManrope;" edge="1" parent="KrK5M_bBt51ARahH1-8I-23">
          <mxGeometry width="83.33333333333334" height="83.33333333333334" as="geometry">
            <mxPoint x="30" y="5" as="sourcePoint" />
            <mxPoint x="45" y="20" as="targetPoint" />
            <Array as="points">
              <mxPoint x="30" y="20" />
            </Array>
          </mxGeometry>
        </mxCell>
        <mxCell id="KrK5M_bBt51ARahH1-8I-28" value="" style="endArrow=open;html=1;edgeStyle=orthogonalEdgeStyle;rounded=0;endFill=0;startSize=6;endSize=2;strokeColor=#FFFFFF;fontFamily=Manrope;fontSource=https%3A%2F%2Ffonts.googleapis.com%2Fcss%3Ffamily%3DManrope;" edge="1" parent="KrK5M_bBt51ARahH1-8I-23">
          <mxGeometry width="83.33333333333334" height="83.33333333333334" as="geometry">
            <mxPoint x="45" y="31.666666666666668" as="sourcePoint" />
            <mxPoint x="30" y="45" as="targetPoint" />
            <Array as="points">
              <mxPoint x="30" y="31.666666666666668" />
            </Array>
          </mxGeometry>
        </mxCell>
        <mxCell id="KrK5M_bBt51ARahH1-8I-29" value="&lt;font&gt;srl&lt;/font&gt;" style="text;html=1;align=center;verticalAlign=middle;resizable=0;points=[];autosize=1;fontSize=14;fontFamily=Manrope;fontStyle=0;fontColor=#FFFFFF;" vertex="1" parent="KrK5M_bBt51ARahH1-8I-1">
          <mxGeometry x="605" y="383" width="30" height="25" as="geometry" />
        </mxCell>
        <mxCell id="KrK5M_bBt51ARahH1-8I-30" value="" style="endArrow=none;html=1;shadow=0;strokeWidth=4;fillColor=#666666;fontFamily=nasa;fontSize=18;fontColor=#FFFFFF;strokeColor=#4BDD33;" edge="1" parent="KrK5M_bBt51ARahH1-8I-1">
          <mxGeometry width="50" height="50" relative="1" as="geometry">
            <mxPoint x="599" y="293" as="sourcePoint" />
            <mxPoint x="798" y="293" as="targetPoint" />
          </mxGeometry>
        </mxCell>
        <mxCell id="KrK5M_bBt51ARahH1-8I-31" style="edgeStyle=orthogonalEdgeStyle;rounded=0;orthogonalLoop=1;jettySize=auto;html=1;fontFamily=Manrope;fontSize=12;fontColor=#FFFFFF;endArrow=oval;endFill=1;startArrow=oval;startFill=1;strokeColor=#4BDD33;" edge="1" parent="KrK5M_bBt51ARahH1-8I-1" target="KrK5M_bBt51ARahH1-8I-24">
          <mxGeometry relative="1" as="geometry">
            <mxPoint x="620" y="293" as="sourcePoint" />
            <mxPoint x="619.9949999999999" y="321" as="targetPoint" />
          </mxGeometry>
        </mxCell>
        <mxCell id="KrK5M_bBt51ARahH1-8I-32" value="&lt;font&gt;Lab logical diagram&lt;/font&gt;" style="text;html=1;align=center;verticalAlign=middle;resizable=0;points=[];autosize=1;fontSize=14;fontFamily=Manrope;fontStyle=0;fontColor=#FFFFFF;" vertex="1" parent="KrK5M_bBt51ARahH1-8I-1">
          <mxGeometry x="605" y="491.5" width="134" height="22" as="geometry" />
        </mxCell>
        <mxCell id="KrK5M_bBt51ARahH1-8I-33" style="rounded=0;orthogonalLoop=1;jettySize=auto;html=1;entryX=0.5;entryY=1;entryDx=0;entryDy=0;startSize=6;endArrow=none;endFill=0;endSize=2;fontFamily=Manrope;fontSize=8;dashed=1;fontSource=https%3A%2F%2Ffonts.googleapis.com%2Fcss%3Ffamily%3DManrope;strokeColor=#FFFFFF;" edge="1" parent="KrK5M_bBt51ARahH1-8I-1">
          <mxGeometry relative="1" as="geometry">
            <mxPoint x="490" y="503" as="sourcePoint" />
            <mxPoint x="490" y="165" as="targetPoint" />
          </mxGeometry>
        </mxCell>
        <mxCell id="KrK5M_bBt51ARahH1-8I-34" value="" style="rounded=0;whiteSpace=wrap;html=1;fontSize=12;align=center;strokeColor=none;fontFamily=Manrope;fontSource=https%3A%2F%2Ffonts.googleapis.com%2Fcss%3Ffamily%3DManrope;fontColor=#DDE9F5;fillColor=#BEC8D2;" vertex="1" parent="KrK5M_bBt51ARahH1-8I-1">
          <mxGeometry x="270" y="365" width="163.5" height="107.5" as="geometry" />
        </mxCell>
        <mxCell id="KrK5M_bBt51ARahH1-8I-35" value="FRR" style="rounded=0;whiteSpace=wrap;html=1;fontSize=12;align=center;strokeColor=none;fontFamily=Manrope;fontSource=https%3A%2F%2Ffonts.googleapis.com%2Fcss%3Ffamily%3DManrope;fontColor=#FFFFFF;fillColor=#124191;" vertex="1" parent="KrK5M_bBt51ARahH1-8I-1">
          <mxGeometry x="308.5" y="400" width="120" height="37.5" as="geometry" />
        </mxCell>
        <mxCell id="KrK5M_bBt51ARahH1-8I-36" value="eth0" style="rounded=0;whiteSpace=wrap;html=1;fontFamily=Manrope;fontSize=12;fontColor=#FFFFFF;align=center;fillColor=#4BDD33;strokeColor=none;" vertex="1" parent="KrK5M_bBt51ARahH1-8I-1">
          <mxGeometry x="346.75" y="385" width="43.5" height="15" as="geometry" />
        </mxCell>
        <mxCell id="KrK5M_bBt51ARahH1-8I-37" value="veth&lt;font color=&quot;#bec8d2&quot;&gt;XXX&lt;/font&gt;" style="rounded=0;whiteSpace=wrap;html=1;fontFamily=Manrope;fontSize=12;fontColor=#FFFFFF;align=center;fillColor=#4BDD33;strokeColor=none;" vertex="1" parent="KrK5M_bBt51ARahH1-8I-1">
          <mxGeometry x="342.13" y="307.5" width="52.75" height="17.5" as="geometry" />
        </mxCell>
        <mxCell id="KrK5M_bBt51ARahH1-8I-38" style="edgeStyle=orthogonalEdgeStyle;rounded=0;orthogonalLoop=1;jettySize=auto;html=1;exitX=0.5;exitY=0;exitDx=0;exitDy=0;entryX=0.5;entryY=1;entryDx=0;entryDy=0;fontFamily=Manrope;fontSize=12;fontColor=#FFFFFF;endArrow=oval;endFill=1;startArrow=oval;startFill=1;strokeColor=#4BDD33;" edge="1" parent="KrK5M_bBt51ARahH1-8I-1" source="KrK5M_bBt51ARahH1-8I-36" target="KrK5M_bBt51ARahH1-8I-37">
          <mxGeometry relative="1" as="geometry" />
        </mxCell>
        <mxCell id="KrK5M_bBt51ARahH1-8I-39" value="&lt;font color=&quot;#dde9f5&quot;&gt;netns:&lt;/font&gt;&amp;nbsp;container2" style="rounded=0;whiteSpace=wrap;html=1;fontSize=12;align=center;fontFamily=Manrope;fontSource=https%3A%2F%2Ffonts.googleapis.com%2Fcss%3Ffamily%3DManrope;fontColor=#FFFFFF;fillColor=#98A2AE;rotation=0;strokeColor=none;horizontal=0;verticalAlign=middle;" vertex="1" parent="KrK5M_bBt51ARahH1-8I-1">
          <mxGeometry x="433.5" y="365" width="26.5" height="107.5" as="geometry" />
        </mxCell>
        <mxCell id="KrK5M_bBt51ARahH1-8I-40" value="e1-1" style="rounded=0;whiteSpace=wrap;html=1;fontFamily=Manrope;fontSize=12;fontColor=#FFFFFF;align=center;strokeColor=none;rotation=0;horizontal=1;fillColor=#001135;" vertex="1" parent="KrK5M_bBt51ARahH1-8I-1">
          <mxGeometry x="200" y="410.62" width="30" height="16.25" as="geometry" />
        </mxCell>
        <mxCell id="KrK5M_bBt51ARahH1-8I-41" value="eth1" style="rounded=0;whiteSpace=wrap;html=1;fontFamily=Manrope;fontSize=12;fontColor=#FFFFFF;align=center;strokeColor=none;rotation=0;horizontal=1;fillColor=#001135;" vertex="1" parent="KrK5M_bBt51ARahH1-8I-1">
          <mxGeometry x="280" y="410.62" width="28.5" height="16.25" as="geometry" />
        </mxCell>
        <mxCell id="KrK5M_bBt51ARahH1-8I-42" style="edgeStyle=orthogonalEdgeStyle;rounded=0;orthogonalLoop=1;jettySize=auto;html=1;exitX=1;exitY=0.5;exitDx=0;exitDy=0;entryX=0;entryY=0.5;entryDx=0;entryDy=0;fontFamily=Manrope;fontSize=12;fontColor=#FFFFFF;endArrow=oval;endFill=1;startArrow=oval;startFill=1;strokeColor=#001135;" edge="1" parent="KrK5M_bBt51ARahH1-8I-1" source="KrK5M_bBt51ARahH1-8I-40" target="KrK5M_bBt51ARahH1-8I-41">
          <mxGeometry relative="1" as="geometry">
            <mxPoint x="145" y="379.99" as="sourcePoint" />
            <mxPoint x="145.0050000000001" y="324.99" as="targetPoint" />
          </mxGeometry>
        </mxCell>
        <mxCell id="KrK5M_bBt51ARahH1-8I-43" value="" style="group" vertex="1" connectable="0" parent="KrK5M_bBt51ARahH1-8I-1">
          <mxGeometry x="762" y="333" width="50" height="50" as="geometry" />
        </mxCell>
        <mxCell id="KrK5M_bBt51ARahH1-8I-44" value="" style="group" vertex="1" connectable="0" parent="KrK5M_bBt51ARahH1-8I-43">
          <mxGeometry width="50" height="50" as="geometry" />
        </mxCell>
        <mxCell id="KrK5M_bBt51ARahH1-8I-45" value="" style="whiteSpace=wrap;html=1;aspect=fixed;fillColor=#001135;strokeColor=none;connectable=1;allowArrows=1;fontFamily=Manrope;fontSource=https%3A%2F%2Ffonts.googleapis.com%2Fcss%3Ffamily%3DManrope;" vertex="1" parent="KrK5M_bBt51ARahH1-8I-44">
          <mxGeometry width="50" height="50" as="geometry" />
        </mxCell>
        <mxCell id="KrK5M_bBt51ARahH1-8I-46" value="" style="endArrow=open;html=1;edgeStyle=orthogonalEdgeStyle;rounded=0;endFill=0;startSize=6;endSize=2;strokeColor=#FFFFFF;fontFamily=Manrope;fontSource=https%3A%2F%2Ffonts.googleapis.com%2Fcss%3Ffamily%3DManrope;" edge="1" parent="KrK5M_bBt51ARahH1-8I-44">
          <mxGeometry width="83.33333333333334" height="83.33333333333334" as="geometry">
            <mxPoint x="5" y="20" as="sourcePoint" />
            <mxPoint x="18.333333333333336" y="5" as="targetPoint" />
            <Array as="points">
              <mxPoint x="18.333333333333336" y="20" />
            </Array>
          </mxGeometry>
        </mxCell>
        <mxCell id="KrK5M_bBt51ARahH1-8I-47" value="" style="endArrow=open;html=1;edgeStyle=orthogonalEdgeStyle;rounded=0;endFill=0;startSize=6;endSize=2;strokeColor=#FFFFFF;fontFamily=Manrope;fontSource=https%3A%2F%2Ffonts.googleapis.com%2Fcss%3Ffamily%3DManrope;" edge="1" parent="KrK5M_bBt51ARahH1-8I-44">
          <mxGeometry width="83.33333333333334" height="83.33333333333334" as="geometry">
            <mxPoint x="18.333333333333336" y="45" as="sourcePoint" />
            <mxPoint x="5" y="31.666666666666668" as="targetPoint" />
            <Array as="points">
              <mxPoint x="18.333333333333336" y="31.666666666666668" />
            </Array>
          </mxGeometry>
        </mxCell>
        <mxCell id="KrK5M_bBt51ARahH1-8I-48" value="" style="endArrow=open;html=1;edgeStyle=orthogonalEdgeStyle;rounded=0;endFill=0;startSize=6;endSize=2;strokeColor=#FFFFFF;fontFamily=Manrope;fontSource=https%3A%2F%2Ffonts.googleapis.com%2Fcss%3Ffamily%3DManrope;" edge="1" parent="KrK5M_bBt51ARahH1-8I-44">
          <mxGeometry width="83.33333333333334" height="83.33333333333334" as="geometry">
            <mxPoint x="30" y="5" as="sourcePoint" />
            <mxPoint x="45" y="20" as="targetPoint" />
            <Array as="points">
              <mxPoint x="30" y="20" />
            </Array>
          </mxGeometry>
        </mxCell>
        <mxCell id="KrK5M_bBt51ARahH1-8I-49" value="" style="endArrow=open;html=1;edgeStyle=orthogonalEdgeStyle;rounded=0;endFill=0;startSize=6;endSize=2;strokeColor=#FFFFFF;fontFamily=Manrope;fontSource=https%3A%2F%2Ffonts.googleapis.com%2Fcss%3Ffamily%3DManrope;" edge="1" parent="KrK5M_bBt51ARahH1-8I-44">
          <mxGeometry width="83.33333333333334" height="83.33333333333334" as="geometry">
            <mxPoint x="45" y="31.666666666666668" as="sourcePoint" />
            <mxPoint x="30" y="45" as="targetPoint" />
            <Array as="points">
              <mxPoint x="30" y="31.666666666666668" />
            </Array>
          </mxGeometry>
        </mxCell>
        <mxCell id="KrK5M_bBt51ARahH1-8I-50" value="&lt;font&gt;frr&lt;/font&gt;" style="text;html=1;align=center;verticalAlign=middle;resizable=0;points=[];autosize=1;fontSize=14;fontFamily=Manrope;fontStyle=0;fontColor=#FFFFFF;" vertex="1" parent="KrK5M_bBt51ARahH1-8I-1">
          <mxGeometry x="774.5" y="385" width="26" height="22" as="geometry" />
        </mxCell>
        <mxCell id="KrK5M_bBt51ARahH1-8I-51" style="edgeStyle=orthogonalEdgeStyle;rounded=0;orthogonalLoop=1;jettySize=auto;html=1;fontFamily=Manrope;fontSize=12;fontColor=#FFFFFF;endArrow=oval;endFill=1;startArrow=oval;startFill=1;strokeColor=#4BDD33;" edge="1" parent="KrK5M_bBt51ARahH1-8I-1">
          <mxGeometry relative="1" as="geometry">
            <mxPoint x="786.7600000000002" y="293" as="sourcePoint" />
            <mxPoint x="786.7600000000002" y="333" as="targetPoint" />
          </mxGeometry>
        </mxCell>
        <mxCell id="KrK5M_bBt51ARahH1-8I-52" style="edgeStyle=orthogonalEdgeStyle;rounded=0;orthogonalLoop=1;jettySize=auto;html=1;fontFamily=Manrope;fontSize=12;fontColor=#FFFFFF;endArrow=oval;endFill=1;startArrow=oval;startFill=1;entryX=1;entryY=0.5;entryDx=0;entryDy=0;exitX=0;exitY=0.5;exitDx=0;exitDy=0;strokeColor=#98A2AE;" edge="1" parent="KrK5M_bBt51ARahH1-8I-1" source="KrK5M_bBt51ARahH1-8I-54" target="KrK5M_bBt51ARahH1-8I-53">
          <mxGeometry relative="1" as="geometry">
            <mxPoint x="625" y="298" as="sourcePoint" />
            <mxPoint x="625" y="338" as="targetPoint" />
          </mxGeometry>
        </mxCell>
        <mxCell id="KrK5M_bBt51ARahH1-8I-53" value="e1-1" style="rounded=0;whiteSpace=wrap;html=1;fontFamily=Manrope;fontSize=12;fontColor=#FFFFFF;align=center;strokeColor=none;rotation=0;horizontal=1;fillColor=#98A2AE;" vertex="1" parent="KrK5M_bBt51ARahH1-8I-1">
          <mxGeometry x="645" y="349.87" width="30" height="16.25" as="geometry" />
        </mxCell>
        <mxCell id="KrK5M_bBt51ARahH1-8I-54" value="eth1" style="rounded=0;whiteSpace=wrap;html=1;fontFamily=Manrope;fontSize=12;fontColor=#FFFFFF;align=center;strokeColor=none;rotation=0;horizontal=1;fillColor=#98A2AE;" vertex="1" parent="KrK5M_bBt51ARahH1-8I-1">
          <mxGeometry x="731" y="349.38" width="31" height="16.25" as="geometry" />
        </mxCell>
        <mxCell id="KrK5M_bBt51ARahH1-8I-55" value="&lt;font style=&quot;font-size: 12px&quot;&gt;&lt;font color=&quot;#ffffff&quot;&gt;docker network:&lt;/font&gt;&lt;br&gt;&lt;/font&gt;&lt;span style=&quot;font-size: 12px&quot;&gt;&lt;font color=&quot;#bec8d2&quot;&gt;clab&lt;/font&gt;&lt;/span&gt;" style="text;html=1;align=right;verticalAlign=middle;resizable=0;points=[];autosize=1;fontSize=10;fontFamily=Manrope;fontColor=#001135;" vertex="1" parent="KrK5M_bBt51ARahH1-8I-1">
          <mxGeometry x="495" y="277.5" width="100" height="30" as="geometry" />
        </mxCell>
      </root>
    </mxGraphModel>
  </diagram>
  <diagram name="[3] frr bgp" id="jony8yJHt7hd-fepOI-b">
    <mxGraphModel dx="977" dy="547" grid="1" gridSize="1" guides="1" tooltips="1" connect="1" arrows="1" fold="1" page="1" pageScale="1" pageWidth="827" pageHeight="1169" background="#4D5766" math="0" shadow="0">
      <root>
        <mxCell id="26TaGHVJ2dGUHmyQN3sf-0" />
        <mxCell id="26TaGHVJ2dGUHmyQN3sf-1" parent="26TaGHVJ2dGUHmyQN3sf-0" />
        <mxCell id="26TaGHVJ2dGUHmyQN3sf-2" value="" style="rounded=0;whiteSpace=wrap;html=1;fontSize=12;align=center;strokeColor=none;fontFamily=Manrope;fontSource=https%3A%2F%2Ffonts.googleapis.com%2Fcss%3Ffamily%3DManrope;fontColor=#DDE9F5;fillColor=#BEC8D2;" vertex="1" parent="26TaGHVJ2dGUHmyQN3sf-1">
          <mxGeometry x="208" y="314" width="405" height="107.5" as="geometry" />
        </mxCell>
        <mxCell id="26TaGHVJ2dGUHmyQN3sf-3" value="" style="group" vertex="1" connectable="0" parent="26TaGHVJ2dGUHmyQN3sf-1">
          <mxGeometry x="222" y="338.5" width="50" height="50" as="geometry" />
        </mxCell>
        <mxCell id="26TaGHVJ2dGUHmyQN3sf-4" value="" style="group" vertex="1" connectable="0" parent="26TaGHVJ2dGUHmyQN3sf-3">
          <mxGeometry width="50" height="50" as="geometry" />
        </mxCell>
        <mxCell id="26TaGHVJ2dGUHmyQN3sf-5" value="" style="whiteSpace=wrap;html=1;aspect=fixed;fillColor=#001135;strokeColor=none;connectable=1;allowArrows=1;fontFamily=Manrope;fontSource=https%3A%2F%2Ffonts.googleapis.com%2Fcss%3Ffamily%3DManrope;" vertex="1" parent="26TaGHVJ2dGUHmyQN3sf-4">
          <mxGeometry width="50" height="50" as="geometry" />
        </mxCell>
        <mxCell id="26TaGHVJ2dGUHmyQN3sf-6" value="" style="endArrow=open;html=1;edgeStyle=orthogonalEdgeStyle;rounded=0;endFill=0;startSize=6;endSize=2;strokeColor=#FFFFFF;fontFamily=Manrope;fontSource=https%3A%2F%2Ffonts.googleapis.com%2Fcss%3Ffamily%3DManrope;" edge="1" parent="26TaGHVJ2dGUHmyQN3sf-4">
          <mxGeometry width="83.33333333333334" height="83.33333333333334" as="geometry">
            <mxPoint x="5" y="20" as="sourcePoint" />
            <mxPoint x="18.333333333333336" y="5" as="targetPoint" />
            <Array as="points">
              <mxPoint x="18.333333333333336" y="20" />
            </Array>
          </mxGeometry>
        </mxCell>
        <mxCell id="26TaGHVJ2dGUHmyQN3sf-7" value="" style="endArrow=open;html=1;edgeStyle=orthogonalEdgeStyle;rounded=0;endFill=0;startSize=6;endSize=2;strokeColor=#FFFFFF;fontFamily=Manrope;fontSource=https%3A%2F%2Ffonts.googleapis.com%2Fcss%3Ffamily%3DManrope;" edge="1" parent="26TaGHVJ2dGUHmyQN3sf-4">
          <mxGeometry width="83.33333333333334" height="83.33333333333334" as="geometry">
            <mxPoint x="18.333333333333336" y="45" as="sourcePoint" />
            <mxPoint x="5" y="31.666666666666668" as="targetPoint" />
            <Array as="points">
              <mxPoint x="18.333333333333336" y="31.666666666666668" />
            </Array>
          </mxGeometry>
        </mxCell>
        <mxCell id="26TaGHVJ2dGUHmyQN3sf-8" value="" style="endArrow=open;html=1;edgeStyle=orthogonalEdgeStyle;rounded=0;endFill=0;startSize=6;endSize=2;strokeColor=#FFFFFF;fontFamily=Manrope;fontSource=https%3A%2F%2Ffonts.googleapis.com%2Fcss%3Ffamily%3DManrope;" edge="1" parent="26TaGHVJ2dGUHmyQN3sf-4">
          <mxGeometry width="83.33333333333334" height="83.33333333333334" as="geometry">
            <mxPoint x="30" y="5" as="sourcePoint" />
            <mxPoint x="45" y="20" as="targetPoint" />
            <Array as="points">
              <mxPoint x="30" y="20" />
            </Array>
          </mxGeometry>
        </mxCell>
        <mxCell id="26TaGHVJ2dGUHmyQN3sf-9" value="" style="endArrow=open;html=1;edgeStyle=orthogonalEdgeStyle;rounded=0;endFill=0;startSize=6;endSize=2;strokeColor=#FFFFFF;fontFamily=Manrope;fontSource=https%3A%2F%2Ffonts.googleapis.com%2Fcss%3Ffamily%3DManrope;" edge="1" parent="26TaGHVJ2dGUHmyQN3sf-4">
          <mxGeometry width="83.33333333333334" height="83.33333333333334" as="geometry">
            <mxPoint x="45" y="31.666666666666668" as="sourcePoint" />
            <mxPoint x="30" y="45" as="targetPoint" />
            <Array as="points">
              <mxPoint x="30" y="31.666666666666668" />
            </Array>
          </mxGeometry>
        </mxCell>
        <mxCell id="26TaGHVJ2dGUHmyQN3sf-10" value="&lt;font&gt;srl&lt;/font&gt;" style="text;html=1;align=center;verticalAlign=middle;resizable=0;points=[];autosize=1;fontSize=14;fontFamily=Manrope;fontStyle=0;fontColor=#FFFFFF;" vertex="1" parent="26TaGHVJ2dGUHmyQN3sf-1">
          <mxGeometry x="232" y="388.5" width="30" height="25" as="geometry" />
        </mxCell>
        <mxCell id="26TaGHVJ2dGUHmyQN3sf-11" style="edgeStyle=orthogonalEdgeStyle;rounded=0;orthogonalLoop=1;jettySize=auto;html=1;fontFamily=Manrope;fontSize=12;fontColor=#FFFFFF;endArrow=oval;endFill=1;startArrow=oval;startFill=1;strokeColor=#00C9FF;" edge="1" parent="26TaGHVJ2dGUHmyQN3sf-1" target="26TaGHVJ2dGUHmyQN3sf-5">
          <mxGeometry relative="1" as="geometry">
            <mxPoint x="247" y="298.5" as="sourcePoint" />
            <mxPoint x="246.9949999999999" y="326.5" as="targetPoint" />
          </mxGeometry>
        </mxCell>
        <mxCell id="26TaGHVJ2dGUHmyQN3sf-12" value="" style="group" vertex="1" connectable="0" parent="26TaGHVJ2dGUHmyQN3sf-1">
          <mxGeometry x="535" y="338.5" width="50" height="50" as="geometry" />
        </mxCell>
        <mxCell id="26TaGHVJ2dGUHmyQN3sf-13" value="" style="group" vertex="1" connectable="0" parent="26TaGHVJ2dGUHmyQN3sf-12">
          <mxGeometry width="50" height="50" as="geometry" />
        </mxCell>
        <mxCell id="26TaGHVJ2dGUHmyQN3sf-14" value="" style="whiteSpace=wrap;html=1;aspect=fixed;fillColor=#001135;strokeColor=none;connectable=1;allowArrows=1;fontFamily=Manrope;fontSource=https%3A%2F%2Ffonts.googleapis.com%2Fcss%3Ffamily%3DManrope;" vertex="1" parent="26TaGHVJ2dGUHmyQN3sf-13">
          <mxGeometry width="50" height="50" as="geometry" />
        </mxCell>
        <mxCell id="26TaGHVJ2dGUHmyQN3sf-15" value="" style="endArrow=open;html=1;edgeStyle=orthogonalEdgeStyle;rounded=0;endFill=0;startSize=6;endSize=2;strokeColor=#FFFFFF;fontFamily=Manrope;fontSource=https%3A%2F%2Ffonts.googleapis.com%2Fcss%3Ffamily%3DManrope;" edge="1" parent="26TaGHVJ2dGUHmyQN3sf-13">
          <mxGeometry width="83.33333333333334" height="83.33333333333334" as="geometry">
            <mxPoint x="5" y="20" as="sourcePoint" />
            <mxPoint x="18.333333333333336" y="5" as="targetPoint" />
            <Array as="points">
              <mxPoint x="18.333333333333336" y="20" />
            </Array>
          </mxGeometry>
        </mxCell>
        <mxCell id="26TaGHVJ2dGUHmyQN3sf-16" value="" style="endArrow=open;html=1;edgeStyle=orthogonalEdgeStyle;rounded=0;endFill=0;startSize=6;endSize=2;strokeColor=#FFFFFF;fontFamily=Manrope;fontSource=https%3A%2F%2Ffonts.googleapis.com%2Fcss%3Ffamily%3DManrope;" edge="1" parent="26TaGHVJ2dGUHmyQN3sf-13">
          <mxGeometry width="83.33333333333334" height="83.33333333333334" as="geometry">
            <mxPoint x="18.333333333333336" y="45" as="sourcePoint" />
            <mxPoint x="5" y="31.666666666666668" as="targetPoint" />
            <Array as="points">
              <mxPoint x="18.333333333333336" y="31.666666666666668" />
            </Array>
          </mxGeometry>
        </mxCell>
        <mxCell id="26TaGHVJ2dGUHmyQN3sf-17" value="" style="endArrow=open;html=1;edgeStyle=orthogonalEdgeStyle;rounded=0;endFill=0;startSize=6;endSize=2;strokeColor=#FFFFFF;fontFamily=Manrope;fontSource=https%3A%2F%2Ffonts.googleapis.com%2Fcss%3Ffamily%3DManrope;" edge="1" parent="26TaGHVJ2dGUHmyQN3sf-13">
          <mxGeometry width="83.33333333333334" height="83.33333333333334" as="geometry">
            <mxPoint x="30" y="5" as="sourcePoint" />
            <mxPoint x="45" y="20" as="targetPoint" />
            <Array as="points">
              <mxPoint x="30" y="20" />
            </Array>
          </mxGeometry>
        </mxCell>
        <mxCell id="26TaGHVJ2dGUHmyQN3sf-18" value="" style="endArrow=open;html=1;edgeStyle=orthogonalEdgeStyle;rounded=0;endFill=0;startSize=6;endSize=2;strokeColor=#FFFFFF;fontFamily=Manrope;fontSource=https%3A%2F%2Ffonts.googleapis.com%2Fcss%3Ffamily%3DManrope;" edge="1" parent="26TaGHVJ2dGUHmyQN3sf-13">
          <mxGeometry width="83.33333333333334" height="83.33333333333334" as="geometry">
            <mxPoint x="45" y="31.666666666666668" as="sourcePoint" />
            <mxPoint x="30" y="45" as="targetPoint" />
            <Array as="points">
              <mxPoint x="30" y="31.666666666666668" />
            </Array>
          </mxGeometry>
        </mxCell>
        <mxCell id="26TaGHVJ2dGUHmyQN3sf-19" value="&lt;font&gt;frr&lt;/font&gt;" style="text;html=1;align=center;verticalAlign=middle;resizable=0;points=[];autosize=1;fontSize=14;fontFamily=Manrope;fontStyle=0;fontColor=#FFFFFF;" vertex="1" parent="26TaGHVJ2dGUHmyQN3sf-1">
          <mxGeometry x="547.5" y="390.5" width="26" height="22" as="geometry" />
        </mxCell>
        <mxCell id="26TaGHVJ2dGUHmyQN3sf-20" style="edgeStyle=orthogonalEdgeStyle;rounded=0;orthogonalLoop=1;jettySize=auto;html=1;fontFamily=Manrope;fontSize=12;fontColor=#FFFFFF;endArrow=oval;endFill=1;startArrow=oval;startFill=1;strokeColor=#00C9FF;" edge="1" parent="26TaGHVJ2dGUHmyQN3sf-1">
          <mxGeometry relative="1" as="geometry">
            <mxPoint x="559.7600000000002" y="298.5" as="sourcePoint" />
            <mxPoint x="559.7600000000002" y="338.5" as="targetPoint" />
          </mxGeometry>
        </mxCell>
        <mxCell id="26TaGHVJ2dGUHmyQN3sf-21" style="edgeStyle=orthogonalEdgeStyle;rounded=0;orthogonalLoop=1;jettySize=auto;html=1;fontFamily=Manrope;fontSize=12;fontColor=#FFFFFF;endArrow=oval;endFill=1;startArrow=oval;startFill=1;entryX=1;entryY=0.5;entryDx=0;entryDy=0;exitX=0;exitY=0.5;exitDx=0;exitDy=0;strokeColor=#98A2AE;" edge="1" parent="26TaGHVJ2dGUHmyQN3sf-1" source="26TaGHVJ2dGUHmyQN3sf-23" target="26TaGHVJ2dGUHmyQN3sf-22">
          <mxGeometry relative="1" as="geometry">
            <mxPoint x="376" y="303.5" as="sourcePoint" />
            <mxPoint x="376" y="343.5" as="targetPoint" />
          </mxGeometry>
        </mxCell>
        <mxCell id="26TaGHVJ2dGUHmyQN3sf-22" value="e-1/1" style="rounded=0;whiteSpace=wrap;html=1;fontFamily=Manrope;fontSize=12;fontColor=#FFFFFF;align=center;strokeColor=none;rotation=0;horizontal=1;fillColor=#98A2AE;" vertex="1" parent="26TaGHVJ2dGUHmyQN3sf-1">
          <mxGeometry x="272" y="355.37" width="30" height="16.25" as="geometry" />
        </mxCell>
        <mxCell id="26TaGHVJ2dGUHmyQN3sf-23" value="eth1" style="rounded=0;whiteSpace=wrap;html=1;fontFamily=Manrope;fontSize=12;fontColor=#FFFFFF;align=center;strokeColor=none;rotation=0;horizontal=1;fillColor=#98A2AE;" vertex="1" parent="26TaGHVJ2dGUHmyQN3sf-1">
          <mxGeometry x="501" y="354.88" width="34" height="16.25" as="geometry" />
        </mxCell>
        <mxCell id="26TaGHVJ2dGUHmyQN3sf-24" value="&lt;b&gt;AS: 65001&lt;/b&gt;" style="text;html=1;align=center;verticalAlign=middle;resizable=0;points=[];autosize=1;fontSize=14;fontFamily=Manrope;fontStyle=0;fontColor=#FFFFFF;" vertex="1" parent="26TaGHVJ2dGUHmyQN3sf-1">
          <mxGeometry x="361" y="390.5" width="75" height="22" as="geometry" />
        </mxCell>
        <mxCell id="26TaGHVJ2dGUHmyQN3sf-25" value="&lt;div style=&quot;font-size: 10px;&quot;&gt;&lt;span style=&quot;color: rgb(255, 255, 255); font-size: 10px;&quot;&gt;192.168.1.0/24&lt;/span&gt;&lt;/div&gt;&lt;div style=&quot;font-size: 10px;&quot;&gt;&lt;br style=&quot;font-size: 10px;&quot;&gt;&lt;/div&gt;" style="text;html=1;align=center;verticalAlign=middle;resizable=0;points=[];autosize=1;fontSize=10;fontFamily=Fira Code;fontColor=#001135;fontSource=https%3A%2F%2Ffonts.googleapis.com%2Fcss%3Ffamily%3DFira%2BCode;connectable=0;rotation=0;opacity=60;" vertex="1" parent="26TaGHVJ2dGUHmyQN3sf-1">
          <mxGeometry x="335" y="347.62" width="95" height="29" as="geometry" />
        </mxCell>
        <mxCell id="26TaGHVJ2dGUHmyQN3sf-26" value="&lt;div style=&quot;font-size: 8px&quot;&gt;&lt;span style=&quot;color: rgb(255 , 255 , 255) ; font-size: 8px&quot;&gt;.1&lt;/span&gt;&lt;/div&gt;&lt;div style=&quot;font-size: 8px&quot;&gt;&lt;br style=&quot;font-size: 8px&quot;&gt;&lt;/div&gt;" style="text;html=1;align=center;verticalAlign=middle;resizable=0;points=[];autosize=1;fontSize=8;fontFamily=Fira Code;fontColor=#001135;fontSource=https%3A%2F%2Ffonts.googleapis.com%2Fcss%3Ffamily%3DFira%2BCode;connectable=0;rotation=0;opacity=60;" vertex="1" parent="26TaGHVJ2dGUHmyQN3sf-1">
          <mxGeometry x="300" y="348" width="21" height="25" as="geometry" />
        </mxCell>
        <mxCell id="26TaGHVJ2dGUHmyQN3sf-27" value="&lt;div style=&quot;font-size: 8px&quot;&gt;&lt;span style=&quot;color: rgb(255 , 255 , 255) ; font-size: 8px&quot;&gt;.2&lt;/span&gt;&lt;/div&gt;&lt;div style=&quot;font-size: 8px&quot;&gt;&lt;br style=&quot;font-size: 8px&quot;&gt;&lt;/div&gt;" style="text;html=1;align=center;verticalAlign=middle;resizable=0;points=[];autosize=1;fontSize=8;fontFamily=Fira Code;fontColor=#001135;fontSource=https%3A%2F%2Ffonts.googleapis.com%2Fcss%3Ffamily%3DFira%2BCode;connectable=0;rotation=0;opacity=60;" vertex="1" parent="26TaGHVJ2dGUHmyQN3sf-1">
          <mxGeometry x="448" y="348" width="21" height="25" as="geometry" />
        </mxCell>
        <mxCell id="26TaGHVJ2dGUHmyQN3sf-28" value="&lt;div style=&quot;font-size: 10px&quot;&gt;&lt;font color=&quot;#ffffff&quot;&gt;lo0.0: 10.10.10.1&lt;/font&gt;&lt;/div&gt;" style="text;html=1;align=center;verticalAlign=middle;resizable=0;points=[];autosize=1;fontSize=10;fontFamily=Fira Code;fontColor=#001135;fontSource=https%3A%2F%2Ffonts.googleapis.com%2Fcss%3Ffamily%3DFira%2BCode;connectable=0;rotation=0;opacity=60;" vertex="1" parent="26TaGHVJ2dGUHmyQN3sf-1">
          <mxGeometry x="192" y="279" width="113" height="17" as="geometry" />
        </mxCell>
        <mxCell id="26TaGHVJ2dGUHmyQN3sf-29" value="&lt;div style=&quot;font-size: 10px&quot;&gt;&lt;font color=&quot;#ffffff&quot;&gt;lo: 10.10.10.2&lt;/font&gt;&lt;/div&gt;" style="text;html=1;align=center;verticalAlign=middle;resizable=0;points=[];autosize=1;fontSize=10;fontFamily=Fira Code;fontColor=#001135;fontSource=https%3A%2F%2Ffonts.googleapis.com%2Fcss%3Ffamily%3DFira%2BCode;connectable=0;rotation=0;opacity=60;" vertex="1" parent="26TaGHVJ2dGUHmyQN3sf-1">
          <mxGeometry x="512.5" y="279" width="95" height="17" as="geometry" />
        </mxCell>
      </root>
    </mxGraphModel>
  </diagram>
</mxfile>
